<svg width="211" height="142" viewBox="0 0 211 142" fill="none" xmlns="http://www.w3.org/2000/svg">
<path d="M179 0.5C180.933 0.5 182.5 2.067 182.5 4V112C182.5 113.933 180.933 115.5 179 115.5H4C2.067 115.5 0.5 113.933 0.5 112V4C0.5 2.06701 2.067 0.5 4 0.5H179Z" fill="#EAEEF4" stroke="#DFE6ED"/>
<path d="M178.624 4.07922H4.23779V112.436H178.624V4.07922Z" fill="white"/>
<path d="M36.7315 4.07922H4.23779V112.436H36.7315V4.07922Z" fill="#224198"/>
<path d="M29.3122 9.35999H11.6659C10.6256 9.35999 9.78226 10.2033 9.78226 11.2437V11.3414C9.78226 12.3818 10.6256 13.2251 11.6659 13.2251H29.3122C30.3526 13.2251 31.1959 12.3818 31.1959 11.3414V11.2437C31.1959 10.2033 30.3526 9.35999 29.3122 9.35999Z" fill="#638BC0"/>
<path d="M86.1431 48.3928H52.7608C51.7205 48.3928 50.8771 49.2362 50.8771 50.2765V50.3743C50.8771 51.4146 51.7205 52.258 52.7608 52.258H86.1431C87.1834 52.258 88.0267 51.4146 88.0267 50.3743V50.2765C88.0267 49.2362 87.1834 48.3928 86.1431 48.3928Z" fill="#E9EFF5" fill-opacity="0.7"/>
<path fill-rule="evenodd" clip-rule="evenodd" d="M86.1431 48.8161H52.7608C51.9542 48.8161 51.3004 49.4699 51.3004 50.2765V50.3743C51.3004 51.1808 51.9542 51.8347 52.7608 51.8347H86.1431C86.9496 51.8347 87.6035 51.1808 87.6035 50.3743V50.2765C87.6035 49.4699 86.9496 48.8161 86.1431 48.8161ZM52.7608 48.3928H86.1431C87.1834 48.3928 88.0267 49.2362 88.0267 50.2765V50.3743C88.0267 51.4146 87.1834 52.258 86.1431 52.258H52.7608C51.7205 52.258 50.8771 51.4146 50.8771 50.3743V50.2765C50.8771 49.2362 51.7205 48.3928 52.7608 48.3928Z" fill="#E1E5EF"/>
<path d="M112.621 48.3928H98.6801C97.6398 48.3928 96.7964 49.2362 96.7964 50.2765V50.3743C96.7964 51.4146 97.6398 52.258 98.6801 52.258H112.621C113.662 52.258 114.505 51.4146 114.505 50.3743V50.2765C114.505 49.2362 113.662 48.3928 112.621 48.3928Z" fill="#E9EFF5" fill-opacity="0.7"/>
<path fill-rule="evenodd" clip-rule="evenodd" d="M112.621 48.8161H98.6801C97.8736 48.8161 97.2197 49.4699 97.2197 50.2765V50.3743C97.2197 51.1808 97.8736 51.8347 98.6801 51.8347H112.621C113.428 51.8347 114.082 51.1808 114.082 50.3743V50.2765C114.082 49.4699 113.428 48.8161 112.621 48.8161ZM98.6801 48.3928H112.621C113.662 48.3928 114.505 49.2362 114.505 50.2765V50.3743C114.505 51.4146 113.662 52.258 112.621 52.258H98.6801C97.6398 52.258 96.7964 51.4146 96.7964 50.3743V50.2765C96.7964 49.2362 97.6398 48.3928 98.6801 48.3928Z" fill="#E1E5EF"/>
<path d="M150.535 48.3928H125.843C124.802 48.3928 123.959 49.2362 123.959 50.2765V50.3743C123.959 51.4146 124.802 52.258 125.843 52.258H150.535C151.575 52.258 152.419 51.4146 152.419 50.3743V50.2765C152.419 49.2362 151.575 48.3928 150.535 48.3928Z" fill="#E9EFF5" fill-opacity="0.7"/>
<path fill-rule="evenodd" clip-rule="evenodd" d="M150.535 48.8161H125.843C125.036 48.8161 124.382 49.4699 124.382 50.2765V50.3743C124.382 51.1808 125.036 51.8347 125.843 51.8347H150.535C151.342 51.8347 151.995 51.1808 151.995 50.3743V50.2765C151.995 49.4699 151.342 48.8161 150.535 48.8161ZM125.843 48.3928H150.535C151.575 48.3928 152.419 49.2362 152.419 50.2765V50.3743C152.419 51.4146 151.575 52.258 150.535 52.258H125.843C124.802 52.258 123.959 51.4146 123.959 50.3743V50.2765C123.959 49.2362 124.802 48.3928 125.843 48.3928Z" fill="#E1E5EF"/>
<path d="M162.627 48.3928H162.112C161.072 48.3928 160.228 49.2362 160.228 50.2765V50.3743C160.228 51.4146 161.072 52.258 162.112 52.258H162.627C163.668 52.258 164.511 51.4146 164.511 50.3743V50.2765C164.511 49.2362 163.668 48.3928 162.627 48.3928Z" fill="#E9EFF5" fill-opacity="0.7"/>
<path fill-rule="evenodd" clip-rule="evenodd" d="M162.627 48.8161H162.112C161.305 48.8161 160.651 49.4699 160.651 50.2765V50.3743C160.651 51.1808 161.305 51.8347 162.112 51.8347H162.627C163.434 51.8347 164.088 51.1808 164.088 50.3743V50.2765C164.088 49.4699 163.434 48.8161 162.627 48.8161ZM162.112 48.3928H162.627C163.668 48.3928 164.511 49.2362 164.511 50.2765V50.3743C164.511 51.4146 163.668 52.258 162.627 52.258H162.112C161.072 52.258 160.228 51.4146 160.228 50.3743V50.2765C160.228 49.2362 161.072 48.3928 162.112 48.3928Z" fill="#E1E5EF"/>
<path d="M86.1431 57.2604H52.7608C51.7205 57.2604 50.8771 58.1037 50.8771 59.1441V59.2418C50.8771 60.2822 51.7205 61.1255 52.7608 61.1255H86.1431C87.1834 61.1255 88.0267 60.2822 88.0267 59.2418V59.1441C88.0267 58.1037 87.1834 57.2604 86.1431 57.2604Z" fill="#E9EFF5" fill-opacity="0.7"/>
<path fill-rule="evenodd" clip-rule="evenodd" d="M86.1431 57.6836H52.7608C51.9542 57.6836 51.3004 58.3375 51.3004 59.1441V59.2418C51.3004 60.0484 51.9542 60.7022 52.7608 60.7022H86.1431C86.9496 60.7022 87.6035 60.0484 87.6035 59.2418V59.1441C87.6035 58.3375 86.9496 57.6836 86.1431 57.6836ZM52.7608 57.2604H86.1431C87.1834 57.2604 88.0267 58.1037 88.0267 59.1441V59.2418C88.0267 60.2822 87.1834 61.1255 86.1431 61.1255H52.7608C51.7205 61.1255 50.8771 60.2822 50.8771 59.2418V59.1441C50.8771 58.1037 51.7205 57.2604 52.7608 57.2604Z" fill="#E1E5EF"/>
<path d="M112.621 57.2604H98.6801C97.6398 57.2604 96.7964 58.1037 96.7964 59.1441V59.2418C96.7964 60.2822 97.6398 61.1255 98.6801 61.1255H112.621C113.662 61.1255 114.505 60.2822 114.505 59.2418V59.1441C114.505 58.1037 113.662 57.2604 112.621 57.2604Z" fill="#E9EFF5" fill-opacity="0.7"/>
<path fill-rule="evenodd" clip-rule="evenodd" d="M112.621 57.6836H98.6801C97.8736 57.6836 97.2197 58.3375 97.2197 59.1441V59.2418C97.2197 60.0484 97.8736 60.7022 98.6801 60.7022H112.621C113.428 60.7022 114.082 60.0484 114.082 59.2418V59.1441C114.082 58.3375 113.428 57.6836 112.621 57.6836ZM98.6801 57.2604H112.621C113.662 57.2604 114.505 58.1037 114.505 59.1441V59.2418C114.505 60.2822 113.662 61.1255 112.621 61.1255H98.6801C97.6398 61.1255 96.7964 60.2822 96.7964 59.2418V59.1441C96.7964 58.1037 97.6398 57.2604 98.6801 57.2604Z" fill="#E1E5EF"/>
<path d="M150.535 57.2604H125.843C124.802 57.2604 123.959 58.1037 123.959 59.1441V59.2418C123.959 60.2822 124.802 61.1255 125.843 61.1255H150.535C151.575 61.1255 152.419 60.2822 152.419 59.2418V59.1441C152.419 58.1037 151.575 57.2604 150.535 57.2604Z" fill="#E9EFF5" fill-opacity="0.7"/>
<path fill-rule="evenodd" clip-rule="evenodd" d="M150.535 57.6836H125.843C125.036 57.6836 124.382 58.3375 124.382 59.1441V59.2418C124.382 60.0484 125.036 60.7022 125.843 60.7022H150.535C151.342 60.7022 151.995 60.0484 151.995 59.2418V59.1441C151.995 58.3375 151.342 57.6836 150.535 57.6836ZM125.843 57.2604H150.535C151.575 57.2604 152.419 58.1037 152.419 59.1441V59.2418C152.419 60.2822 151.575 61.1255 150.535 61.1255H125.843C124.802 61.1255 123.959 60.2822 123.959 59.2418V59.1441C123.959 58.1037 124.802 57.2604 125.843 57.2604Z" fill="#E1E5EF"/>
<path d="M162.627 57.2604H162.112C161.072 57.2604 160.228 58.1037 160.228 59.1441V59.2418C160.228 60.2822 161.072 61.1255 162.112 61.1255H162.627C163.668 61.1255 164.511 60.2822 164.511 59.2418V59.1441C164.511 58.1037 163.668 57.2604 162.627 57.2604Z" fill="#E9EFF5" fill-opacity="0.7"/>
<path fill-rule="evenodd" clip-rule="evenodd" d="M162.627 57.6836H162.112C161.305 57.6836 160.651 58.3375 160.651 59.1441V59.2418C160.651 60.0484 161.305 60.7022 162.112 60.7022H162.627C163.434 60.7022 164.088 60.0484 164.088 59.2418V59.1441C164.088 58.3375 163.434 57.6836 162.627 57.6836ZM162.112 57.2604H162.627C163.668 57.2604 164.511 58.1037 164.511 59.1441V59.2418C164.511 60.2822 163.668 61.1255 162.627 61.1255H162.112C161.072 61.1255 160.228 60.2822 160.228 59.2418V59.1441C160.228 58.1037 161.072 57.2604 162.112 57.2604Z" fill="#E1E5EF"/>
<path d="M86.1431 66.1191H52.7608C51.7205 66.1191 50.8771 66.9625 50.8771 68.0028V68.1006C50.8771 69.1409 51.7205 69.9843 52.7608 69.9843H86.1431C87.1834 69.9843 88.0267 69.1409 88.0267 68.1006V68.0028C88.0267 66.9625 87.1834 66.1191 86.1431 66.1191Z" fill="#E9EFF5" fill-opacity="0.7"/>
<path fill-rule="evenodd" clip-rule="evenodd" d="M86.1431 66.5424H52.7608C51.9542 66.5424 51.3004 67.1963 51.3004 68.0028V68.1006C51.3004 68.9072 51.9542 69.561 52.7608 69.561H86.1431C86.9496 69.561 87.6035 68.9072 87.6035 68.1006V68.0028C87.6035 67.1963 86.9496 66.5424 86.1431 66.5424ZM52.7608 66.1191H86.1431C87.1834 66.1191 88.0267 66.9625 88.0267 68.0028V68.1006C88.0267 69.1409 87.1834 69.9843 86.1431 69.9843H52.7608C51.7205 69.9843 50.8771 69.1409 50.8771 68.1006V68.0028C50.8771 66.9625 51.7205 66.1191 52.7608 66.1191Z" fill="#E1E5EF"/>
<path d="M112.621 66.1191H98.6801C97.6398 66.1191 96.7964 66.9625 96.7964 68.0028V68.1006C96.7964 69.1409 97.6398 69.9843 98.6801 69.9843H112.621C113.662 69.9843 114.505 69.1409 114.505 68.1006V68.0028C114.505 66.9625 113.662 66.1191 112.621 66.1191Z" fill="#E9EFF5" fill-opacity="0.7"/>
<path fill-rule="evenodd" clip-rule="evenodd" d="M112.621 66.5424H98.6801C97.8736 66.5424 97.2197 67.1963 97.2197 68.0028V68.1006C97.2197 68.9072 97.8736 69.561 98.6801 69.561H112.621C113.428 69.561 114.082 68.9072 114.082 68.1006V68.0028C114.082 67.1963 113.428 66.5424 112.621 66.5424ZM98.6801 66.1191H112.621C113.662 66.1191 114.505 66.9625 114.505 68.0028V68.1006C114.505 69.1409 113.662 69.9843 112.621 69.9843H98.6801C97.6398 69.9843 96.7964 69.1409 96.7964 68.1006V68.0028C96.7964 66.9625 97.6398 66.1191 98.6801 66.1191Z" fill="#E1E5EF"/>
<path d="M150.535 66.1191H125.843C124.802 66.1191 123.959 66.9625 123.959 68.0028V68.1006C123.959 69.1409 124.802 69.9843 125.843 69.9843H150.535C151.575 69.9843 152.419 69.1409 152.419 68.1006V68.0028C152.419 66.9625 151.575 66.1191 150.535 66.1191Z" fill="#E9EFF5" fill-opacity="0.7"/>
<path fill-rule="evenodd" clip-rule="evenodd" d="M150.535 66.5424H125.843C125.036 66.5424 124.382 67.1963 124.382 68.0028V68.1006C124.382 68.9072 125.036 69.561 125.843 69.561H150.535C151.342 69.561 151.995 68.9072 151.995 68.1006V68.0028C151.995 67.1963 151.342 66.5424 150.535 66.5424ZM125.843 66.1191H150.535C151.575 66.1191 152.419 66.9625 152.419 68.0028V68.1006C152.419 69.1409 151.575 69.9843 150.535 69.9843H125.843C124.802 69.9843 123.959 69.1409 123.959 68.1006V68.0028C123.959 66.9625 124.802 66.1191 125.843 66.1191Z" fill="#E1E5EF"/>
<path d="M162.627 66.1191H162.112C161.072 66.1191 160.228 66.9625 160.228 68.0028V68.1006C160.228 69.1409 161.072 69.9843 162.112 69.9843H162.627C163.668 69.9843 164.511 69.1409 164.511 68.1006V68.0028C164.511 66.9625 163.668 66.1191 162.627 66.1191Z" fill="#E9EFF5" fill-opacity="0.7"/>
<path fill-rule="evenodd" clip-rule="evenodd" d="M162.627 66.5424H162.112C161.305 66.5424 160.651 67.1963 160.651 68.0028V68.1006C160.651 68.9072 161.305 69.561 162.112 69.561H162.627C163.434 69.561 164.088 68.9072 164.088 68.1006V68.0028C164.088 67.1963 163.434 66.5424 162.627 66.5424ZM162.112 66.1191H162.627C163.668 66.1191 164.511 66.9625 164.511 68.0028V68.1006C164.511 69.1409 163.668 69.9843 162.627 69.9843H162.112C161.072 69.9843 160.228 69.1409 160.228 68.1006V68.0028C160.228 66.9625 161.072 66.1191 162.112 66.1191Z" fill="#E1E5EF"/>
<path d="M86.1431 74.9867H52.7608C51.7205 74.9867 50.8771 75.83 50.8771 76.8704V76.9681C50.8771 78.0084 51.7205 78.8518 52.7608 78.8518H86.1431C87.1834 78.8518 88.0267 78.0084 88.0267 76.9681V76.8704C88.0267 75.83 87.1834 74.9867 86.1431 74.9867Z" fill="#E9EFF5" fill-opacity="0.7"/>
<path fill-rule="evenodd" clip-rule="evenodd" d="M86.1431 75.41H52.7608C51.9542 75.41 51.3004 76.0638 51.3004 76.8704V76.9681C51.3004 77.7747 51.9542 78.4285 52.7608 78.4285H86.1431C86.9496 78.4285 87.6035 77.7747 87.6035 76.9681V76.8704C87.6035 76.0638 86.9496 75.41 86.1431 75.41ZM52.7608 74.9867H86.1431C87.1834 74.9867 88.0267 75.83 88.0267 76.8704V76.9681C88.0267 78.0084 87.1834 78.8518 86.1431 78.8518H52.7608C51.7205 78.8518 50.8771 78.0084 50.8771 76.9681V76.8704C50.8771 75.83 51.7205 74.9867 52.7608 74.9867Z" fill="#E1E5EF"/>
<path d="M112.621 74.9867H98.6801C97.6398 74.9867 96.7964 75.83 96.7964 76.8704V76.9681C96.7964 78.0084 97.6398 78.8518 98.6801 78.8518H112.621C113.662 78.8518 114.505 78.0084 114.505 76.9681V76.8704C114.505 75.83 113.662 74.9867 112.621 74.9867Z" fill="#E9EFF5" fill-opacity="0.7"/>
<path fill-rule="evenodd" clip-rule="evenodd" d="M112.621 75.41H98.6801C97.8736 75.41 97.2197 76.0638 97.2197 76.8704V76.9681C97.2197 77.7747 97.8736 78.4285 98.6801 78.4285H112.621C113.428 78.4285 114.082 77.7747 114.082 76.9681V76.8704C114.082 76.0638 113.428 75.41 112.621 75.41ZM98.6801 74.9867H112.621C113.662 74.9867 114.505 75.83 114.505 76.8704V76.9681C114.505 78.0084 113.662 78.8518 112.621 78.8518H98.6801C97.6398 78.8518 96.7964 78.0084 96.7964 76.9681V76.8704C96.7964 75.83 97.6398 74.9867 98.6801 74.9867Z" fill="#E1E5EF"/>
<path d="M150.535 74.9867H125.843C124.802 74.9867 123.959 75.83 123.959 76.8704V76.9681C123.959 78.0084 124.802 78.8518 125.843 78.8518H150.535C151.575 78.8518 152.419 78.0084 152.419 76.9681V76.8704C152.419 75.83 151.575 74.9867 150.535 74.9867Z" fill="#E9EFF5" fill-opacity="0.7"/>
<path fill-rule="evenodd" clip-rule="evenodd" d="M150.535 75.41H125.843C125.036 75.41 124.382 76.0638 124.382 76.8704V76.9681C124.382 77.7747 125.036 78.4285 125.843 78.4285H150.535C151.342 78.4285 151.995 77.7747 151.995 76.9681V76.8704C151.995 76.0638 151.342 75.41 150.535 75.41ZM125.843 74.9867H150.535C151.575 74.9867 152.419 75.83 152.419 76.8704V76.9681C152.419 78.0084 151.575 78.8518 150.535 78.8518H125.843C124.802 78.8518 123.959 78.0084 123.959 76.9681V76.8704C123.959 75.83 124.802 74.9867 125.843 74.9867Z" fill="#E1E5EF"/>
<path d="M162.627 74.9867H162.112C161.072 74.9867 160.228 75.83 160.228 76.8704V76.9681C160.228 78.0084 161.072 78.8518 162.112 78.8518H162.627C163.668 78.8518 164.511 78.0084 164.511 76.9681V76.8704C164.511 75.83 163.668 74.9867 162.627 74.9867Z" fill="#E9EFF5" fill-opacity="0.7"/>
<path fill-rule="evenodd" clip-rule="evenodd" d="M162.627 75.41H162.112C161.305 75.41 160.651 76.0638 160.651 76.8704V76.9681C160.651 77.7747 161.305 78.4285 162.112 78.4285H162.627C163.434 78.4285 164.088 77.7747 164.088 76.9681V76.8704C164.088 76.0638 163.434 75.41 162.627 75.41ZM162.112 74.9867H162.627C163.668 74.9867 164.511 75.83 164.511 76.8704V76.9681C164.511 78.0084 163.668 78.8518 162.627 78.8518H162.112C161.072 78.8518 160.228 78.0084 160.228 76.9681V76.8704C160.228 75.83 161.072 74.9867 162.112 74.9867Z" fill="#E1E5EF"/>
<path d="M86.1431 83.8453H52.7608C51.7205 83.8453 50.8771 84.6887 50.8771 85.729V85.8268C50.8771 86.8671 51.7205 87.7104 52.7608 87.7104H86.1431C87.1834 87.7104 88.0267 86.8671 88.0267 85.8268V85.729C88.0267 84.6887 87.1834 83.8453 86.1431 83.8453Z" fill="#E9EFF5" fill-opacity="0.7"/>
<path fill-rule="evenodd" clip-rule="evenodd" d="M86.1431 84.2686H52.7608C51.9542 84.2686 51.3004 84.9225 51.3004 85.729V85.8268C51.3004 86.6333 51.9542 87.2872 52.7608 87.2872H86.1431C86.9496 87.2872 87.6035 86.6333 87.6035 85.8268V85.729C87.6035 84.9225 86.9496 84.2686 86.1431 84.2686ZM52.7608 83.8453H86.1431C87.1834 83.8453 88.0267 84.6887 88.0267 85.729V85.8268C88.0267 86.8671 87.1834 87.7104 86.1431 87.7104H52.7608C51.7205 87.7104 50.8771 86.8671 50.8771 85.8268V85.729C50.8771 84.6887 51.7205 83.8453 52.7608 83.8453Z" fill="#E1E5EF"/>
<path d="M112.621 83.8453H98.6801C97.6398 83.8453 96.7964 84.6887 96.7964 85.729V85.8268C96.7964 86.8671 97.6398 87.7104 98.6801 87.7104H112.621C113.662 87.7104 114.505 86.8671 114.505 85.8268V85.729C114.505 84.6887 113.662 83.8453 112.621 83.8453Z" fill="#E9EFF5" fill-opacity="0.7"/>
<path fill-rule="evenodd" clip-rule="evenodd" d="M112.621 84.2686H98.6801C97.8736 84.2686 97.2197 84.9225 97.2197 85.729V85.8268C97.2197 86.6333 97.8736 87.2872 98.6801 87.2872H112.621C113.428 87.2872 114.082 86.6333 114.082 85.8268V85.729C114.082 84.9225 113.428 84.2686 112.621 84.2686ZM98.6801 83.8453H112.621C113.662 83.8453 114.505 84.6887 114.505 85.729V85.8268C114.505 86.8671 113.662 87.7104 112.621 87.7104H98.6801C97.6398 87.7104 96.7964 86.8671 96.7964 85.8268V85.729C96.7964 84.6887 97.6398 83.8453 98.6801 83.8453Z" fill="#E1E5EF"/>
<path d="M150.535 83.8453H125.843C124.802 83.8453 123.959 84.6887 123.959 85.729V85.8268C123.959 86.8671 124.802 87.7104 125.843 87.7104H150.535C151.575 87.7104 152.419 86.8671 152.419 85.8268V85.729C152.419 84.6887 151.575 83.8453 150.535 83.8453Z" fill="#E9EFF5" fill-opacity="0.7"/>
<path fill-rule="evenodd" clip-rule="evenodd" d="M150.535 84.2686H125.843C125.036 84.2686 124.382 84.9225 124.382 85.729V85.8268C124.382 86.6333 125.036 87.2872 125.843 87.2872H150.535C151.342 87.2872 151.995 86.6333 151.995 85.8268V85.729C151.995 84.9225 151.342 84.2686 150.535 84.2686ZM125.843 83.8453H150.535C151.575 83.8453 152.419 84.6887 152.419 85.729V85.8268C152.419 86.8671 151.575 87.7104 150.535 87.7104H125.843C124.802 87.7104 123.959 86.8671 123.959 85.8268V85.729C123.959 84.6887 124.802 83.8453 125.843 83.8453Z" fill="#E1E5EF"/>
<path d="M162.627 83.8453H162.112C161.072 83.8453 160.228 84.6887 160.228 85.729V85.8268C160.228 86.8671 161.072 87.7104 162.112 87.7104H162.627C163.668 87.7104 164.511 86.8671 164.511 85.8268V85.729C164.511 84.6887 163.668 83.8453 162.627 83.8453Z" fill="#E9EFF5" fill-opacity="0.7"/>
<path fill-rule="evenodd" clip-rule="evenodd" d="M162.627 84.2686H162.112C161.305 84.2686 160.651 84.9225 160.651 85.729V85.8268C160.651 86.6333 161.305 87.2872 162.112 87.2872H162.627C163.434 87.2872 164.088 86.6333 164.088 85.8268V85.729C164.088 84.9225 163.434 84.2686 162.627 84.2686ZM162.112 83.8453H162.627C163.668 83.8453 164.511 84.6887 164.511 85.729V85.8268C164.511 86.8671 163.668 87.7104 162.627 87.7104H162.112C161.072 87.7104 160.228 86.8671 160.228 85.8268V85.729C160.228 84.6887 161.072 83.8453 162.112 83.8453Z" fill="#E1E5EF"/>
<path d="M86.1431 92.713H52.7608C51.7205 92.713 50.8771 93.5564 50.8771 94.5967V94.6945C50.8771 95.7348 51.7205 96.5781 52.7608 96.5781H86.1431C87.1834 96.5781 88.0267 95.7348 88.0267 94.6945V94.5967C88.0267 93.5564 87.1834 92.713 86.1431 92.713Z" fill="#E9EFF5" fill-opacity="0.7"/>
<path fill-rule="evenodd" clip-rule="evenodd" d="M86.1431 93.1363H52.7608C51.9542 93.1363 51.3004 93.7901 51.3004 94.5967V94.6945C51.3004 95.501 51.9542 96.1549 52.7608 96.1549H86.1431C86.9496 96.1549 87.6035 95.501 87.6035 94.6945V94.5967C87.6035 93.7901 86.9496 93.1363 86.1431 93.1363ZM52.7608 92.713H86.1431C87.1834 92.713 88.0267 93.5564 88.0267 94.5967V94.6945C88.0267 95.7348 87.1834 96.5781 86.1431 96.5781H52.7608C51.7205 96.5781 50.8771 95.7348 50.8771 94.6945V94.5967C50.8771 93.5564 51.7205 92.713 52.7608 92.713Z" fill="#E1E5EF"/>
<path d="M86.1431 101.515H52.7608C51.7205 101.515 50.8771 102.358 50.8771 103.399V103.497C50.8771 104.537 51.7205 105.38 52.7608 105.38H86.1431C87.1834 105.38 88.0267 104.537 88.0267 103.497V103.399C88.0267 102.358 87.1834 101.515 86.1431 101.515Z" fill="#E9EFF5" fill-opacity="0.7"/>
<path fill-rule="evenodd" clip-rule="evenodd" d="M86.1431 101.938H52.7608C51.9542 101.938 51.3004 102.592 51.3004 103.399V103.497C51.3004 104.303 51.9542 104.957 52.7608 104.957H86.1431C86.9496 104.957 87.6035 104.303 87.6035 103.497V103.399C87.6035 102.592 86.9496 101.938 86.1431 101.938ZM52.7608 101.515H86.1431C87.1834 101.515 88.0267 102.358 88.0267 103.399V103.497C88.0267 104.537 87.1834 105.38 86.1431 105.38H52.7608C51.7205 105.38 50.8771 104.537 50.8771 103.497V103.399C50.8771 102.358 51.7205 101.515 52.7608 101.515Z" fill="#E1E5EF"/>
<path d="M112.621 92.713H98.6801C97.6398 92.713 96.7964 93.5564 96.7964 94.5967V94.6945C96.7964 95.7348 97.6398 96.5781 98.6801 96.5781H112.621C113.662 96.5781 114.505 95.7348 114.505 94.6945V94.5967C114.505 93.5564 113.662 92.713 112.621 92.713Z" fill="#E9EFF5" fill-opacity="0.7"/>
<path fill-rule="evenodd" clip-rule="evenodd" d="M112.621 93.1363H98.6801C97.8736 93.1363 97.2197 93.7901 97.2197 94.5967V94.6945C97.2197 95.501 97.8736 96.1549 98.6801 96.1549H112.621C113.428 96.1549 114.082 95.501 114.082 94.6945V94.5967C114.082 93.7901 113.428 93.1363 112.621 93.1363ZM98.6801 92.713H112.621C113.662 92.713 114.505 93.5564 114.505 94.5967V94.6945C114.505 95.7348 113.662 96.5781 112.621 96.5781H98.6801C97.6398 96.5781 96.7964 95.7348 96.7964 94.6945V94.5967C96.7964 93.5564 97.6398 92.713 98.6801 92.713Z" fill="#E1E5EF"/>
<path d="M112.621 101.515H98.6801C97.6398 101.515 96.7964 102.358 96.7964 103.399V103.497C96.7964 104.537 97.6398 105.38 98.6801 105.38H112.621C113.662 105.38 114.505 104.537 114.505 103.497V103.399C114.505 102.358 113.662 101.515 112.621 101.515Z" fill="#E9EFF5" fill-opacity="0.7"/>
<path fill-rule="evenodd" clip-rule="evenodd" d="M112.621 101.938H98.6801C97.8736 101.938 97.2197 102.592 97.2197 103.399V103.497C97.2197 104.303 97.8736 104.957 98.6801 104.957H112.621C113.428 104.957 114.082 104.303 114.082 103.497V103.399C114.082 102.592 113.428 101.938 112.621 101.938ZM98.6801 101.515H112.621C113.662 101.515 114.505 102.358 114.505 103.399V103.497C114.505 104.537 113.662 105.38 112.621 105.38H98.6801C97.6398 105.38 96.7964 104.537 96.7964 103.497V103.399C96.7964 102.358 97.6398 101.515 98.6801 101.515Z" fill="#E1E5EF"/>
<path d="M150.535 92.713H125.843C124.802 92.713 123.959 93.5564 123.959 94.5967V94.6945C123.959 95.7348 124.802 96.5781 125.843 96.5781H150.535C151.575 96.5781 152.419 95.7348 152.419 94.6945V94.5967C152.419 93.5564 151.575 92.713 150.535 92.713Z" fill="#E9EFF5" fill-opacity="0.7"/>
<path fill-rule="evenodd" clip-rule="evenodd" d="M150.535 93.1363H125.843C125.036 93.1363 124.382 93.7901 124.382 94.5967V94.6945C124.382 95.501 125.036 96.1549 125.843 96.1549H150.535C151.342 96.1549 151.995 95.501 151.995 94.6945V94.5967C151.995 93.7901 151.342 93.1363 150.535 93.1363ZM125.843 92.713H150.535C151.575 92.713 152.419 93.5564 152.419 94.5967V94.6945C152.419 95.7348 151.575 96.5781 150.535 96.5781H125.843C124.802 96.5781 123.959 95.7348 123.959 94.6945V94.5967C123.959 93.5564 124.802 92.713 125.843 92.713Z" fill="#E1E5EF"/>
<path d="M150.535 101.515H125.843C124.802 101.515 123.959 102.358 123.959 103.399V103.497C123.959 104.537 124.802 105.38 125.843 105.38H150.535C151.575 105.38 152.419 104.537 152.419 103.497V103.399C152.419 102.358 151.575 101.515 150.535 101.515Z" fill="#E9EFF5" fill-opacity="0.7"/>
<path fill-rule="evenodd" clip-rule="evenodd" d="M150.535 101.938H125.843C125.036 101.938 124.382 102.592 124.382 103.399V103.497C124.382 104.303 125.036 104.957 125.843 104.957H150.535C151.342 104.957 151.995 104.303 151.995 103.497V103.399C151.995 102.592 151.342 101.938 150.535 101.938ZM125.843 101.515H150.535C151.575 101.515 152.419 102.358 152.419 103.399V103.497C152.419 104.537 151.575 105.38 150.535 105.38H125.843C124.802 105.38 123.959 104.537 123.959 103.497V103.399C123.959 102.358 124.802 101.515 125.843 101.515Z" fill="#E1E5EF"/>
<path d="M162.627 92.713H162.112C161.072 92.713 160.228 93.5564 160.228 94.5967V94.6945C160.228 95.7348 161.072 96.5781 162.112 96.5781H162.627C163.668 96.5781 164.511 95.7348 164.511 94.6945V94.5967C164.511 93.5564 163.668 92.713 162.627 92.713Z" fill="#E9EFF5" fill-opacity="0.7"/>
<path fill-rule="evenodd" clip-rule="evenodd" d="M162.627 93.1363H162.112C161.305 93.1363 160.651 93.7901 160.651 94.5967V94.6945C160.651 95.501 161.305 96.1549 162.112 96.1549H162.627C163.434 96.1549 164.088 95.501 164.088 94.6945V94.5967C164.088 93.7901 163.434 93.1363 162.627 93.1363ZM162.112 92.713H162.627C163.668 92.713 164.511 93.5564 164.511 94.5967V94.6945C164.511 95.7348 163.668 96.5781 162.627 96.5781H162.112C161.072 96.5781 160.228 95.7348 160.228 94.6945V94.5967C160.228 93.5564 161.072 92.713 162.112 92.713Z" fill="#E1E5EF"/>
<path d="M162.627 101.515H162.112C161.072 101.515 160.228 102.358 160.228 103.399V103.497C160.228 104.537 161.072 105.38 162.112 105.38H162.627C163.668 105.38 164.511 104.537 164.511 103.497V103.399C164.511 102.358 163.668 101.515 162.627 101.515Z" fill="#E9EFF5" fill-opacity="0.7"/>
<path fill-rule="evenodd" clip-rule="evenodd" d="M162.627 101.938H162.112C161.305 101.938 160.651 102.592 160.651 103.399V103.497C160.651 104.303 161.305 104.957 162.112 104.957H162.627C163.434 104.957 164.088 104.303 164.088 103.497V103.399C164.088 102.592 163.434 101.938 162.627 101.938ZM162.112 101.515H162.627C163.668 101.515 164.511 102.358 164.511 103.399V103.497C164.511 104.537 163.668 105.38 162.627 105.38H162.112C161.072 105.38 160.228 104.537 160.228 103.497V103.399C160.228 102.358 161.072 101.515 162.112 101.515Z" fill="#E1E5EF"/>
<path d="M29.3122 20.3206H11.6659C10.6256 20.3206 9.78226 21.1639 9.78226 22.2043V22.302C9.78226 23.3423 10.6256 24.1857 11.6659 24.1857H29.3122C30.3526 24.1857 31.1959 23.3423 31.1959 22.302V22.2043C31.1959 21.1639 30.3526 20.3206 29.3122 20.3206Z" fill="#365EA9"/>
<path d="M29.3122 28.5864H11.6659C10.6256 28.5864 9.78226 29.4298 9.78226 30.4701V30.5679C9.78226 31.6082 10.6256 32.4516 11.6659 32.4516H29.3122C30.3526 32.4516 31.1959 31.6082 31.1959 30.5679V30.4701C31.1959 29.4298 30.3526 28.5864 29.3122 28.5864Z" fill="#365EA9"/>
<path d="M29.3122 36.8522H11.6659C10.6256 36.8522 9.78226 37.6955 9.78226 38.7359V38.8336C9.78226 39.8739 10.6256 40.7173 11.6659 40.7173H29.3122C30.3526 40.7173 31.1959 39.8739 31.1959 38.8336V38.7359C31.1959 37.6955 30.3526 36.8522 29.3122 36.8522Z" fill="#365EA9"/>
<path d="M29.3122 45.1179H11.6659C10.6256 45.1179 9.78226 45.9613 9.78226 47.0016V47.0994C9.78226 48.1397 10.6256 48.9831 11.6659 48.9831H29.3122C30.3526 48.9831 31.1959 48.1397 31.1959 47.0994V47.0016C31.1959 45.9613 30.3526 45.1179 29.3122 45.1179Z" fill="#365EA9"/>
<path d="M29.4544 84.0942H11.5238C10.562 84.0942 9.78226 84.8739 9.78226 85.8358V106.761C9.78226 107.723 10.562 108.502 11.5238 108.502H29.4544C30.4162 108.502 31.1959 107.723 31.1959 106.761V85.8358C31.1959 84.8739 30.4162 84.0942 29.4544 84.0942Z" fill="#284A9E"/>
<path d="M24.932 98.9506H16.0555C14.4018 98.9506 13.0612 100.291 13.0612 101.945V102.096C13.0612 103.75 14.4018 105.09 16.0555 105.09H24.932C26.5857 105.09 27.9263 103.75 27.9263 102.096V101.945C27.9263 100.291 26.5857 98.9506 24.932 98.9506Z" fill="#1AA3A7"/>
<path opacity="0.4" d="M69.412 38.3347H53.3117C51.9671 38.3347 50.8771 39.4247 50.8771 40.7693V40.9026C50.8771 42.2472 51.9671 43.3371 53.3117 43.3371H69.412C70.7565 43.3371 71.8465 42.2472 71.8465 40.9026V40.7693C71.8465 39.4247 70.7565 38.3347 69.412 38.3347Z" fill="#485F7F"/>
<path opacity="0.8" d="M163.33 38.3347H147.229C145.885 38.3347 144.795 39.4247 144.795 40.7693V40.9026C144.795 42.2472 145.885 43.3371 147.229 43.3371H163.33C164.674 43.3371 165.764 42.2472 165.764 40.9026V40.7693C165.764 39.4247 164.674 38.3347 163.33 38.3347Z" fill="#638BC0"/>
<path d="M57.9855 19.9126H53.3164C52.7287 19.9126 52.2522 20.3891 52.2522 20.9768V28.0816C52.2522 28.6694 52.7287 29.1458 53.3164 29.1458H57.9855C58.5733 29.1458 59.0497 28.6694 59.0497 28.0816V20.9768C59.0497 20.3891 58.5733 19.9126 57.9855 19.9126Z" fill="#72B1EC"/>
<path d="M64.7831 22.071H53.3164C52.7287 22.071 52.2522 22.5475 52.2522 23.1353V30.2401C52.2522 30.8279 52.7287 31.3043 53.3164 31.3043H64.7831C65.3708 31.3043 65.8473 30.8279 65.8473 30.2401V23.1353C65.8473 22.5475 65.3708 22.071 64.7831 22.071Z" fill="#99CEFF"/>
<path d="M131.43 19.9126H126.761C126.173 19.9126 125.696 20.3891 125.696 20.9768V28.0816C125.696 28.6694 126.173 29.1458 126.761 29.1458H131.43C132.017 29.1458 132.494 28.6694 132.494 28.0816V20.9768C132.494 20.3891 132.017 19.9126 131.43 19.9126Z" fill="#72B1EC"/>
<path d="M138.227 22.071H126.76C126.173 22.071 125.696 22.5475 125.696 23.1353V30.2401C125.696 30.8279 126.173 31.3043 126.76 31.3043H138.227C138.815 31.3043 139.291 30.8279 139.291 30.2401V23.1353C139.291 22.5475 138.815 22.071 138.227 22.071Z" fill="#99CEFF"/>
<path d="M79.0491 18.1613C78.5651 18.1613 78.169 18.5573 78.169 19.0414V31.3633C78.169 31.8473 78.5651 32.2434 79.0491 32.2434H87.8505C88.3346 32.2434 88.7306 31.8473 88.7306 31.3633V21.2906L85.6013 18.1613H79.0491Z" fill="#ECF1F8"/>
<path fill-rule="evenodd" clip-rule="evenodd" d="M79.0491 18.2318C78.604 18.2318 78.2396 18.5963 78.2396 19.0414V31.3633C78.2396 31.8084 78.604 32.1729 79.0491 32.1729H87.8505C88.2956 32.1729 88.6601 31.8084 88.6601 31.3633V21.3198L85.572 18.2318H79.0491ZM85.6013 18.1613L88.7306 21.2906V31.3633C88.7306 31.8473 88.3346 32.2434 87.8505 32.2434H79.0491C78.5651 32.2434 78.169 31.8473 78.169 31.3633V19.0414C78.169 18.5573 78.5651 18.1613 79.0491 18.1613H85.6013Z" fill="#D9E1E9"/>
<path d="M80.7116 23.1375C80.7116 22.9817 80.8379 22.8553 80.9938 22.8553H85.9058C86.0617 22.8553 86.188 22.9817 86.188 23.1375V28.0496C86.188 28.2054 86.0617 28.3317 85.9058 28.3317H80.9938C80.8379 28.3317 80.7116 28.2054 80.7116 28.0496V23.1375Z" fill="#128E52"/>
<path d="M86.3837 21.2906H88.7307L85.6013 18.1613V20.5083C85.6013 20.9386 85.9534 21.2906 86.3837 21.2906Z" fill="#E1E5EF"/>
<path d="M103.693 18.1613C103.209 18.1613 102.813 18.5573 102.813 19.0414V31.3633C102.813 31.8473 103.209 32.2434 103.693 32.2434H112.494C112.978 32.2434 113.374 31.8473 113.374 31.3633V21.2906L110.245 18.1613H103.693Z" fill="#ECF1F8"/>
<path fill-rule="evenodd" clip-rule="evenodd" d="M103.693 18.2318C103.248 18.2318 102.883 18.5963 102.883 19.0414V31.3633C102.883 31.8084 103.248 32.1729 103.693 32.1729H112.494C112.939 32.1729 113.304 31.8084 113.304 31.3633V21.3198L110.216 18.2318H103.693ZM110.245 18.1613L113.374 21.2906V31.3633C113.374 31.8473 112.978 32.2434 112.494 32.2434H103.693C103.209 32.2434 102.813 31.8473 102.813 31.3633V19.0414C102.813 18.5573 103.209 18.1613 103.693 18.1613H110.245Z" fill="#D9E1E9"/>
<path d="M105.355 23.1375C105.355 22.9817 105.482 22.8553 105.638 22.8553H110.55C110.706 22.8553 110.832 22.9817 110.832 23.1375V28.0496C110.832 28.2054 110.706 28.3317 110.55 28.3317H105.638C105.482 28.3317 105.355 28.2054 105.355 28.0496V23.1375Z" fill="#FFA200"/>
<path d="M111.028 21.2906H113.375L110.245 18.1613V20.5083C110.245 20.9386 110.597 21.2906 111.028 21.2906Z" fill="#E1E5EF"/>
<path d="M152.98 18.1613C152.496 18.1613 152.1 18.5573 152.1 19.0414V31.3633C152.1 31.8473 152.496 32.2434 152.98 32.2434H161.782C162.266 32.2434 162.662 31.8473 162.662 31.3633V21.2906L159.533 18.1613H152.98Z" fill="#ECF1F8"/>
<path fill-rule="evenodd" clip-rule="evenodd" d="M152.98 18.2318C152.535 18.2318 152.171 18.5963 152.171 19.0414V31.3633C152.171 31.8084 152.535 32.1729 152.98 32.1729H161.782C162.227 32.1729 162.591 31.8084 162.591 31.3633V21.3198L159.503 18.2318H152.98ZM159.533 18.1613L162.662 21.2906V31.3633C162.662 31.8473 162.266 32.2434 161.782 32.2434H152.98C152.496 32.2434 152.1 31.8473 152.1 31.3633V19.0414C152.1 18.5573 152.496 18.1613 152.98 18.1613H159.533Z" fill="#D9E1E9"/>
<path d="M154.643 23.1375C154.643 22.9817 154.769 22.8553 154.925 22.8553H159.837C159.993 22.8553 160.119 22.9817 160.119 23.1375V28.0496C160.119 28.2054 159.993 28.3317 159.837 28.3317H154.925C154.769 28.3317 154.643 28.2054 154.643 28.0496V23.1375Z" fill="#2255B6"/>
<path d="M160.315 21.2906H162.662L159.533 18.1613V20.5083C159.533 20.9386 159.885 21.2906 160.315 21.2906Z" fill="#E1E5EF"/>
<path d="M200.8 16.7C206.047 16.7 210.3 20.9532 210.3 26.2V131.6C210.3 136.847 206.047 141.1 200.8 141.1H158.8C153.553 141.1 149.3 136.847 149.3 131.6V26.2C149.3 20.9533 153.553 16.7 158.8 16.7H200.8Z" fill="#EAEEF4" stroke="#DFE6ED"/>
<path d="M208.133 27.0692V130.774C208.133 132.944 207.271 135.026 205.737 136.561C204.203 138.095 202.122 138.958 199.952 138.958H159.65C157.48 138.958 155.399 138.095 153.865 136.561C152.33 135.026 151.469 132.944 151.469 130.774V27.0692C151.469 24.8995 152.331 22.8187 153.866 21.2845C155.4 19.7503 157.481 18.8883 159.65 18.8881H164.54C164.299 19.4783 164.207 20.1186 164.272 20.7527C164.338 21.3868 164.558 21.9951 164.913 22.524C165.269 23.053 165.749 23.4864 166.312 23.7861C166.874 24.0857 167.502 24.2424 168.139 24.2424H191.117C191.754 24.2424 192.382 24.0857 192.944 23.7861C193.507 23.4864 193.987 23.053 194.343 22.524C194.698 21.9951 194.918 21.3868 194.984 20.7527C195.049 20.1186 194.957 19.4783 194.716 18.8881H199.952C202.121 18.8883 204.202 19.7503 205.736 21.2845C207.27 22.8187 208.132 24.8995 208.133 27.0692Z" fill="white"/>
<path d="M193.675 71.6013H166.306C165.152 71.6013 164.218 72.4111 164.218 73.41V73.5039C164.218 74.5028 165.152 75.3126 166.306 75.3126H193.675C194.829 75.3126 195.763 74.5028 195.763 73.5039V73.41C195.763 72.4111 194.829 71.6013 193.675 71.6013Z" fill="#E9EFF5" fill-opacity="0.7"/>
<path fill-rule="evenodd" clip-rule="evenodd" d="M193.675 71.8333H166.306C165.248 71.8333 164.45 72.5693 164.45 73.41V73.5039C164.45 74.3445 165.248 75.0806 166.306 75.0806H193.675C194.733 75.0806 195.531 74.3445 195.531 73.5039V73.41C195.531 72.5693 194.733 71.8333 193.675 71.8333ZM166.306 71.6013H193.675C194.829 71.6013 195.763 72.4111 195.763 73.41V73.5039C195.763 74.5028 194.829 75.3126 193.675 75.3126H166.306C165.152 75.3126 164.218 74.5028 164.218 73.5039V73.41C164.218 72.4111 165.152 71.6013 166.306 71.6013Z" fill="#E1E5EF"/>
<path d="M193.675 79.9517H166.306C165.152 79.9517 164.218 80.7614 164.218 81.7604V81.8542C164.218 82.8531 165.152 83.6629 166.306 83.6629H193.675C194.829 83.6629 195.763 82.8531 195.763 81.8542V81.7604C195.763 80.7614 194.829 79.9517 193.675 79.9517Z" fill="#E9EFF5" fill-opacity="0.7"/>
<path fill-rule="evenodd" clip-rule="evenodd" d="M193.675 80.1836H166.306C165.248 80.1836 164.45 80.9197 164.45 81.7604V81.8542C164.45 82.6949 165.248 83.431 166.306 83.431H193.675C194.733 83.431 195.531 82.6949 195.531 81.8542V81.7604C195.531 80.9197 194.733 80.1836 193.675 80.1836ZM166.306 79.9517H193.675C194.829 79.9517 195.763 80.7614 195.763 81.7604V81.8542C195.763 82.8531 194.829 83.6629 193.675 83.6629H166.306C165.152 83.6629 164.218 82.8531 164.218 81.8542V81.7604C164.218 80.7614 165.152 79.9517 166.306 79.9517Z" fill="#E1E5EF"/>
<path d="M193.675 113.353H166.306C165.152 113.353 164.218 114.163 164.218 115.162V115.256C164.218 116.255 165.152 117.064 166.306 117.064H193.675C194.829 117.064 195.763 116.255 195.763 115.256V115.162C195.763 114.163 194.829 113.353 193.675 113.353Z" fill="#E9EFF5" fill-opacity="0.7"/>
<path fill-rule="evenodd" clip-rule="evenodd" d="M193.675 113.585H166.306C165.248 113.585 164.45 114.321 164.45 115.162V115.256C164.45 116.096 165.248 116.832 166.306 116.832H193.675C194.733 116.832 195.531 116.096 195.531 115.256V115.162C195.531 114.321 194.733 113.585 193.675 113.585ZM166.306 113.353H193.675C194.829 113.353 195.763 114.163 195.763 115.162V115.256C195.763 116.255 194.829 117.064 193.675 117.064H166.306C165.152 117.064 164.218 116.255 164.218 115.256V115.162C164.218 114.163 165.152 113.353 166.306 113.353Z" fill="#E1E5EF"/>
<path d="M193.675 88.302H166.306C165.152 88.302 164.218 89.1118 164.218 90.1107V90.2046C164.218 91.2035 165.152 92.0133 166.306 92.0133H193.675C194.829 92.0133 195.763 91.2035 195.763 90.2046V90.1107C195.763 89.1118 194.829 88.302 193.675 88.302Z" fill="#E9EFF5" fill-opacity="0.7"/>
<path fill-rule="evenodd" clip-rule="evenodd" d="M193.675 88.534H166.306C165.248 88.534 164.45 89.27 164.45 90.1107V90.2046C164.45 91.0452 165.248 91.7813 166.306 91.7813H193.675C194.733 91.7813 195.531 91.0452 195.531 90.2046V90.1107C195.531 89.27 194.733 88.534 193.675 88.534ZM166.306 88.302H193.675C194.829 88.302 195.763 89.1118 195.763 90.1107V90.2046C195.763 91.2035 194.829 92.0133 193.675 92.0133H166.306C165.152 92.0133 164.218 91.2035 164.218 90.2046V90.1107C164.218 89.1118 165.152 88.302 166.306 88.302Z" fill="#E1E5EF"/>
<path d="M193.675 96.6523H166.306C165.152 96.6523 164.218 97.4621 164.218 98.461V98.5549C164.218 99.5538 165.152 100.364 166.306 100.364H193.675C194.829 100.364 195.763 99.5538 195.763 98.5549V98.461C195.763 97.4621 194.829 96.6523 193.675 96.6523Z" fill="#E9EFF5" fill-opacity="0.7"/>
<path fill-rule="evenodd" clip-rule="evenodd" d="M193.675 96.8843H166.306C165.248 96.8843 164.45 97.6204 164.45 98.461V98.5549C164.45 99.3956 165.248 100.132 166.306 100.132H193.675C194.733 100.132 195.531 99.3956 195.531 98.5549V98.461C195.531 97.6204 194.733 96.8843 193.675 96.8843ZM166.306 96.6523H193.675C194.829 96.6523 195.763 97.4621 195.763 98.461V98.5549C195.763 99.5538 194.829 100.364 193.675 100.364H166.306C165.152 100.364 164.218 99.5538 164.218 98.5549V98.461C164.218 97.4621 165.152 96.6523 166.306 96.6523Z" fill="#E1E5EF"/>
<path d="M193.675 105.003H166.306C165.152 105.003 164.218 105.812 164.218 106.811V106.905C164.218 107.904 165.152 108.714 166.306 108.714H193.675C194.829 108.714 195.763 107.904 195.763 106.905V106.811C195.763 105.812 194.829 105.003 193.675 105.003Z" fill="#E9EFF5" fill-opacity="0.7"/>
<path fill-rule="evenodd" clip-rule="evenodd" d="M193.675 105.235H166.306C165.248 105.235 164.45 105.971 164.45 106.811V106.905C164.45 107.746 165.248 108.482 166.306 108.482H193.675C194.733 108.482 195.531 107.746 195.531 106.905V106.811C195.531 105.971 194.733 105.235 193.675 105.235ZM166.306 105.003H193.675C194.829 105.003 195.763 105.812 195.763 106.811V106.905C195.763 107.904 194.829 108.714 193.675 108.714H166.306C165.152 108.714 164.218 107.904 164.218 106.905V106.811C164.218 105.812 165.152 105.003 166.306 105.003Z" fill="#E1E5EF"/>
<path d="M202.277 71.6013H201.775C200.761 71.6013 199.938 72.4111 199.938 73.41V73.5039C199.938 74.5028 200.761 75.3126 201.775 75.3126H202.277C203.291 75.3126 204.114 74.5028 204.114 73.5039V73.41C204.114 72.4111 203.291 71.6013 202.277 71.6013Z" fill="#E9EFF5" fill-opacity="0.7"/>
<path fill-rule="evenodd" clip-rule="evenodd" d="M202.277 71.8333H201.775C200.885 71.8333 200.17 72.5425 200.17 73.41V73.5039C200.17 74.3714 200.885 75.0806 201.775 75.0806H202.277C203.167 75.0806 203.882 74.3714 203.882 73.5039V73.41C203.882 72.5425 203.167 71.8333 202.277 71.8333ZM201.775 71.6013H202.277C203.291 71.6013 204.114 72.4111 204.114 73.41V73.5039C204.114 74.5028 203.291 75.3126 202.277 75.3126H201.775C200.761 75.3126 199.938 74.5028 199.938 73.5039V73.41C199.938 72.4111 200.761 71.6013 201.775 71.6013Z" fill="#E1E5EF"/>
<path d="M157.742 71.6013H157.24C156.226 71.6013 155.404 72.4111 155.404 73.41V73.5039C155.404 74.5028 156.226 75.3126 157.24 75.3126H157.742C158.757 75.3126 159.579 74.5028 159.579 73.5039V73.41C159.579 72.4111 158.757 71.6013 157.742 71.6013Z" fill="#FFA200" fill-opacity="0.5"/>
<path fill-rule="evenodd" clip-rule="evenodd" d="M157.742 71.8333H157.24C156.351 71.8333 155.636 72.5425 155.636 73.41V73.5039C155.636 74.3714 156.351 75.0806 157.24 75.0806H157.742C158.632 75.0806 159.347 74.3714 159.347 73.5039V73.41C159.347 72.5425 158.632 71.8333 157.742 71.8333ZM157.24 71.6013H157.742C158.757 71.6013 159.579 72.4111 159.579 73.41V73.5039C159.579 74.5028 158.757 75.3126 157.742 75.3126H157.24C156.226 75.3126 155.404 74.5028 155.404 73.5039V73.41C155.404 72.4111 156.226 71.6013 157.24 71.6013Z" fill="#E1E5EF"/>
<path d="M157.742 79.9517H157.24C156.226 79.9517 155.404 80.7614 155.404 81.7604V81.8542C155.404 82.8531 156.226 83.6629 157.24 83.6629H157.742C158.757 83.6629 159.579 82.8531 159.579 81.8542V81.7604C159.579 80.7614 158.757 79.9517 157.742 79.9517Z" fill="#128E52" fill-opacity="0.5"/>
<path fill-rule="evenodd" clip-rule="evenodd" d="M157.742 80.1836H157.24C156.351 80.1836 155.636 80.8929 155.636 81.7604V81.8542C155.636 82.7217 156.351 83.431 157.24 83.431H157.742C158.632 83.431 159.347 82.7217 159.347 81.8542V81.7604C159.347 80.8929 158.632 80.1836 157.742 80.1836ZM157.24 79.9517H157.742C158.757 79.9517 159.579 80.7614 159.579 81.7604V81.8542C159.579 82.8531 158.757 83.6629 157.742 83.6629H157.24C156.226 83.6629 155.404 82.8531 155.404 81.8542V81.7604C155.404 80.7614 156.226 79.9517 157.24 79.9517Z" fill="#E1E5EF"/>
<path d="M157.742 113.353H157.24C156.226 113.353 155.404 114.163 155.404 115.162V115.256C155.404 116.255 156.226 117.064 157.24 117.064H157.742C158.757 117.064 159.579 116.255 159.579 115.256V115.162C159.579 114.163 158.757 113.353 157.742 113.353Z" fill="#128E52" fill-opacity="0.5"/>
<path fill-rule="evenodd" clip-rule="evenodd" d="M157.742 113.585H157.24C156.351 113.585 155.636 114.294 155.636 115.162V115.256C155.636 116.123 156.351 116.832 157.24 116.832H157.742C158.632 116.832 159.347 116.123 159.347 115.256V115.162C159.347 114.294 158.632 113.585 157.742 113.585ZM157.24 113.353H157.742C158.757 113.353 159.579 114.163 159.579 115.162V115.256C159.579 116.255 158.757 117.064 157.742 117.064H157.24C156.226 117.064 155.404 116.255 155.404 115.256V115.162C155.404 114.163 156.226 113.353 157.24 113.353Z" fill="#E1E5EF"/>
<path d="M157.742 88.302H157.24C156.226 88.302 155.404 89.1118 155.404 90.1107V90.2046C155.404 91.2035 156.226 92.0133 157.24 92.0133H157.742C158.757 92.0133 159.579 91.2035 159.579 90.2046V90.1107C159.579 89.1118 158.757 88.302 157.742 88.302Z" fill="#99CEFF"/>
<path fill-rule="evenodd" clip-rule="evenodd" d="M157.742 88.534H157.24C156.351 88.534 155.636 89.2432 155.636 90.1107V90.2046C155.636 91.0721 156.351 91.7813 157.24 91.7813H157.742C158.632 91.7813 159.347 91.0721 159.347 90.2046V90.1107C159.347 89.2432 158.632 88.534 157.742 88.534ZM157.24 88.302H157.742C158.757 88.302 159.579 89.1118 159.579 90.1107V90.2046C159.579 91.2035 158.757 92.0133 157.742 92.0133H157.24C156.226 92.0133 155.404 91.2035 155.404 90.2046V90.1107C155.404 89.1118 156.226 88.302 157.24 88.302Z" fill="#E1E5EF"/>
<path d="M157.742 96.6523H157.24C156.226 96.6523 155.404 97.4621 155.404 98.461V98.5549C155.404 99.5538 156.226 100.364 157.24 100.364H157.742C158.757 100.364 159.579 99.5538 159.579 98.5549V98.461C159.579 97.4621 158.757 96.6523 157.742 96.6523Z" fill="#2255B6" fill-opacity="0.5"/>
<path fill-rule="evenodd" clip-rule="evenodd" d="M157.742 96.8843H157.24C156.351 96.8843 155.636 97.5935 155.636 98.461V98.5549C155.636 99.4224 156.351 100.132 157.24 100.132H157.742C158.632 100.132 159.347 99.4224 159.347 98.5549V98.461C159.347 97.5935 158.632 96.8843 157.742 96.8843ZM157.24 96.6523H157.742C158.757 96.6523 159.579 97.4621 159.579 98.461V98.5549C159.579 99.5538 158.757 100.364 157.742 100.364H157.24C156.226 100.364 155.404 99.5538 155.404 98.5549V98.461C155.404 97.4621 156.226 96.6523 157.24 96.6523Z" fill="#E1E5EF"/>
<path d="M157.742 105.003H157.24C156.226 105.003 155.404 105.812 155.404 106.811V106.905C155.404 107.904 156.226 108.714 157.24 108.714H157.742C158.757 108.714 159.579 107.904 159.579 106.905V106.811C159.579 105.812 158.757 105.003 157.742 105.003Z" fill="#99CEFF"/>
<path fill-rule="evenodd" clip-rule="evenodd" d="M157.742 105.235H157.24C156.351 105.235 155.636 105.944 155.636 106.811V106.905C155.636 107.773 156.351 108.482 157.24 108.482H157.742C158.632 108.482 159.347 107.773 159.347 106.905V106.811C159.347 105.944 158.632 105.235 157.742 105.235ZM157.24 105.003H157.742C158.757 105.003 159.579 105.812 159.579 106.811V106.905C159.579 107.904 158.757 108.714 157.742 108.714H157.24C156.226 108.714 155.404 107.904 155.404 106.905V106.811C155.404 105.812 156.226 105.003 157.24 105.003Z" fill="#E1E5EF"/>
<path d="M202.277 79.9517H201.775C200.761 79.9517 199.938 80.7614 199.938 81.7604V81.8542C199.938 82.8531 200.761 83.6629 201.775 83.6629H202.277C203.291 83.6629 204.114 82.8531 204.114 81.8542V81.7604C204.114 80.7614 203.291 79.9517 202.277 79.9517Z" fill="#E9EFF5" fill-opacity="0.7"/>
<path fill-rule="evenodd" clip-rule="evenodd" d="M202.277 80.1836H201.775C200.885 80.1836 200.17 80.8929 200.17 81.7604V81.8542C200.17 82.7217 200.885 83.431 201.775 83.431H202.277C203.167 83.431 203.882 82.7217 203.882 81.8542V81.7604C203.882 80.8929 203.167 80.1836 202.277 80.1836ZM201.775 79.9517H202.277C203.291 79.9517 204.114 80.7614 204.114 81.7604V81.8542C204.114 82.8531 203.291 83.6629 202.277 83.6629H201.775C200.761 83.6629 199.938 82.8531 199.938 81.8542V81.7604C199.938 80.7614 200.761 79.9517 201.775 79.9517Z" fill="#E1E5EF"/>
<path d="M202.277 113.353H201.775C200.761 113.353 199.938 114.163 199.938 115.162V115.256C199.938 116.255 200.761 117.064 201.775 117.064H202.277C203.291 117.064 204.114 116.255 204.114 115.256V115.162C204.114 114.163 203.291 113.353 202.277 113.353Z" fill="#E9EFF5" fill-opacity="0.7"/>
<path fill-rule="evenodd" clip-rule="evenodd" d="M202.277 113.585H201.775C200.885 113.585 200.17 114.294 200.17 115.162V115.256C200.17 116.123 200.885 116.832 201.775 116.832H202.277C203.167 116.832 203.882 116.123 203.882 115.256V115.162C203.882 114.294 203.167 113.585 202.277 113.585ZM201.775 113.353H202.277C203.291 113.353 204.114 114.163 204.114 115.162V115.256C204.114 116.255 203.291 117.064 202.277 117.064H201.775C200.761 117.064 199.938 116.255 199.938 115.256V115.162C199.938 114.163 200.761 113.353 201.775 113.353Z" fill="#E1E5EF"/>
<path d="M202.277 88.302H201.775C200.761 88.302 199.938 89.1118 199.938 90.1107V90.2046C199.938 91.2035 200.761 92.0133 201.775 92.0133H202.277C203.291 92.0133 204.114 91.2035 204.114 90.2046V90.1107C204.114 89.1118 203.291 88.302 202.277 88.302Z" fill="#E9EFF5" fill-opacity="0.7"/>
<path fill-rule="evenodd" clip-rule="evenodd" d="M202.277 88.534H201.775C200.885 88.534 200.17 89.2432 200.17 90.1107V90.2046C200.17 91.0721 200.885 91.7813 201.775 91.7813H202.277C203.167 91.7813 203.882 91.0721 203.882 90.2046V90.1107C203.882 89.2432 203.167 88.534 202.277 88.534ZM201.775 88.302H202.277C203.291 88.302 204.114 89.1118 204.114 90.1107V90.2046C204.114 91.2035 203.291 92.0133 202.277 92.0133H201.775C200.761 92.0133 199.938 91.2035 199.938 90.2046V90.1107C199.938 89.1118 200.761 88.302 201.775 88.302Z" fill="#E1E5EF"/>
<path d="M202.277 96.6523H201.775C200.761 96.6523 199.938 97.4621 199.938 98.461V98.5549C199.938 99.5538 200.761 100.364 201.775 100.364H202.277C203.291 100.364 204.114 99.5538 204.114 98.5549V98.461C204.114 97.4621 203.291 96.6523 202.277 96.6523Z" fill="#E9EFF5" fill-opacity="0.7"/>
<path fill-rule="evenodd" clip-rule="evenodd" d="M202.277 96.8843H201.775C200.885 96.8843 200.17 97.5935 200.17 98.461V98.5549C200.17 99.4224 200.885 100.132 201.775 100.132H202.277C203.167 100.132 203.882 99.4224 203.882 98.5549V98.461C203.882 97.5935 203.167 96.8843 202.277 96.8843ZM201.775 96.6523H202.277C203.291 96.6523 204.114 97.4621 204.114 98.461V98.5549C204.114 99.5538 203.291 100.364 202.277 100.364H201.775C200.761 100.364 199.938 99.5538 199.938 98.5549V98.461C199.938 97.4621 200.761 96.6523 201.775 96.6523Z" fill="#E1E5EF"/>
<path d="M202.277 105.003H201.775C200.761 105.003 199.938 105.812 199.938 106.811V106.905C199.938 107.904 200.761 108.714 201.775 108.714H202.277C203.291 108.714 204.114 107.904 204.114 106.905V106.811C204.114 105.812 203.291 105.003 202.277 105.003Z" fill="#E9EFF5" fill-opacity="0.7"/>
<path fill-rule="evenodd" clip-rule="evenodd" d="M202.277 105.235H201.775C200.885 105.235 200.17 105.944 200.17 106.811V106.905C200.17 107.773 200.885 108.482 201.775 108.482H202.277C203.167 108.482 203.882 107.773 203.882 106.905V106.811C203.882 105.944 203.167 105.235 202.277 105.235ZM201.775 105.003H202.277C203.291 105.003 204.114 105.812 204.114 106.811V106.905C204.114 107.904 203.291 108.714 202.277 108.714H201.775C200.761 108.714 199.938 107.904 199.938 106.905V106.811C199.938 105.812 200.761 105.003 201.775 105.003Z" fill="#E1E5EF"/>
<path fill-rule="evenodd" clip-rule="evenodd" d="M208.122 67.0845L151.47 67.0845L151.47 66.9L208.122 66.9L208.122 67.0845Z" fill="#E6EAEF"/>
<g opacity="0.8">
<g clip-path="url(#clip0)">
<path fill-rule="evenodd" clip-rule="evenodd" d="M200.528 29.927C199.477 29.927 198.624 30.7794 198.624 31.8309C198.624 32.8824 199.477 33.7349 200.528 33.7349C201.58 33.7349 202.432 32.8824 202.432 31.8309C202.432 30.7794 201.58 29.927 200.528 29.927ZM197.696 31.8309C197.696 30.267 198.964 28.9991 200.528 28.9991C202.092 28.9991 203.36 30.267 203.36 31.8309C203.36 33.3949 202.092 34.6627 200.528 34.6627C198.964 34.6627 197.696 33.3949 197.696 31.8309Z" fill="#D5DCE8"/>
<path fill-rule="evenodd" clip-rule="evenodd" d="M201.891 33.1942C202.073 33.0131 202.366 33.0131 202.547 33.1942L203.9 34.5473C204.082 34.7285 204.082 35.0222 203.9 35.2034C203.719 35.3845 203.426 35.3845 203.244 35.2034L201.891 33.8503C201.71 33.6691 201.71 33.3754 201.891 33.1942Z" fill="#D5DCE8"/>
</g>
</g>
<path d="M161.186 51.2126H157.681C157.24 51.2126 156.883 51.5702 156.883 52.0114V57.3438C156.883 57.785 157.24 58.1426 157.681 58.1426H161.186C161.627 58.1426 161.984 57.785 161.984 57.3438V52.0114C161.984 51.5702 161.627 51.2126 161.186 51.2126Z" fill="#72B1EC"/>
<path d="M166.288 52.8326H157.681C157.24 52.8326 156.883 53.1903 156.883 53.6314V58.9639C156.883 59.405 157.24 59.7626 157.681 59.7626H166.288C166.729 59.7626 167.086 59.405 167.086 58.9639V53.6314C167.086 53.1903 166.729 52.8326 166.288 52.8326Z" fill="#99CEFF"/>
<path d="M176.937 49.7977C176.575 49.7977 176.279 50.0978 176.279 50.4646V59.8007C176.279 60.1675 176.575 60.4676 176.937 60.4676H183.509C183.87 60.4676 184.166 60.1675 184.166 59.8007V52.1688L181.829 49.7977H176.937Z" fill="#ECF1F8"/>
<path fill-rule="evenodd" clip-rule="evenodd" d="M176.937 49.8512C176.604 49.8512 176.332 50.1273 176.332 50.4646V59.8007C176.332 60.138 176.604 60.4141 176.937 60.4141H183.509C183.841 60.4141 184.113 60.138 184.113 59.8007V52.1909L181.807 49.8512H176.937ZM181.829 49.7977L184.166 52.1688V59.8007C184.166 60.1675 183.87 60.4676 183.509 60.4676H176.937C176.575 60.4676 176.279 60.1675 176.279 59.8007V50.4646C176.279 50.0978 176.575 49.7977 176.937 49.7977H181.829Z" fill="#D9E1E9"/>
<path d="M178.178 53.5682C178.178 53.4501 178.272 53.3544 178.389 53.3544H182.056C182.173 53.3544 182.267 53.4501 182.267 53.5682V57.29C182.267 57.408 182.173 57.5038 182.056 57.5038H178.389C178.272 57.5038 178.178 57.408 178.178 57.29V53.5682Z" fill="#128E52"/>
<path d="M182.413 52.1688H184.166L181.829 49.7977V51.576C181.829 51.9021 182.092 52.1688 182.413 52.1688Z" fill="#E1E5EF"/>
<path d="M195.493 49.7977C195.131 49.7977 194.836 50.0978 194.836 50.4646V59.8007C194.836 60.1675 195.131 60.4676 195.493 60.4676H202.065C202.426 60.4676 202.722 60.1675 202.722 59.8007V52.1688L200.385 49.7977H195.493Z" fill="#ECF1F8"/>
<path fill-rule="evenodd" clip-rule="evenodd" d="M195.493 49.8512C195.161 49.8512 194.888 50.1273 194.888 50.4646V59.8007C194.888 60.138 195.161 60.4141 195.493 60.4141H202.065C202.397 60.4141 202.669 60.138 202.669 59.8007V52.1909L200.364 49.8512H195.493ZM200.385 49.7977L202.722 52.1688V59.8007C202.722 60.1675 202.426 60.4676 202.065 60.4676H195.493C195.131 60.4676 194.836 60.1675 194.836 59.8007V50.4646C194.836 50.0978 195.131 49.7977 195.493 49.7977H200.385Z" fill="#D9E1E9"/>
<path d="M196.734 53.5682C196.734 53.4501 196.829 53.3544 196.945 53.3544H200.613C200.729 53.3544 200.824 53.4501 200.824 53.5682V57.29C200.824 57.408 200.729 57.5038 200.613 57.5038H196.945C196.829 57.5038 196.734 57.408 196.734 57.29V53.5682Z" fill="#FFA200"/>
<path d="M200.97 52.1688H202.722L200.385 49.7977V51.576C200.385 51.9021 200.648 52.1688 200.97 52.1688Z" fill="#E1E5EF"/>
<path fill-rule="evenodd" clip-rule="evenodd" d="M208.122 122.289L151.47 122.289L151.47 122.105L208.122 122.105L208.122 122.289Z" fill="#E6EAEF"/>
<path opacity="0.2" d="M169.981 136.335C169.981 135.995 170.256 135.72 170.596 135.72H189.045C189.385 135.72 189.66 135.995 189.66 136.335C189.66 136.675 189.385 136.95 189.045 136.95H170.596C170.256 136.95 169.981 136.675 169.981 136.335Z" fill="#273053"/>
<path d="M184.74 126.595C184.74 129.312 182.538 131.515 179.821 131.515C177.103 131.515 174.901 129.312 174.901 126.595C174.901 123.878 177.103 121.675 179.821 121.675C182.538 121.675 184.74 123.878 184.74 126.595Z" fill="#00BCB1"/>
<g clip-path="url(#clip1)">
<path fill-rule="evenodd" clip-rule="evenodd" d="M179.82 124.673C179.99 124.673 180.128 124.811 180.128 124.98V128.209C180.128 128.379 179.99 128.516 179.82 128.516C179.651 128.516 179.513 128.379 179.513 128.209V124.98C179.513 124.811 179.651 124.673 179.82 124.673Z" fill="white"/>
<path fill-rule="evenodd" clip-rule="evenodd" d="M177.899 126.595C177.899 126.425 178.036 126.287 178.206 126.287H181.435C181.605 126.287 181.742 126.425 181.742 126.595C181.742 126.765 181.605 126.902 181.435 126.902H178.206C178.036 126.902 177.899 126.765 177.899 126.595Z" fill="white"/>
</g>
<path opacity="0.6" fill-rule="evenodd" clip-rule="evenodd" d="M192.674 125.365H190.829C190.489 125.365 190.214 125.64 190.214 125.98V127.825C190.214 128.164 190.489 128.44 190.829 128.44H192.674C193.013 128.44 193.289 128.164 193.289 127.825V125.98C193.289 125.64 193.013 125.365 192.674 125.365ZM190.829 124.75C190.149 124.75 189.599 125.3 189.599 125.98V127.825C189.599 128.504 190.149 129.055 190.829 129.055H192.674C193.353 129.055 193.904 128.504 193.904 127.825V125.98C193.904 125.3 193.353 124.75 192.674 124.75H190.829Z" fill="#E1E5EF"/>
<path opacity="0.6" fill-rule="evenodd" clip-rule="evenodd" d="M168.689 125.365H166.844C166.505 125.365 166.229 125.64 166.229 125.98V127.825C166.229 128.164 166.505 128.44 166.844 128.44H168.689C169.029 128.44 169.304 128.164 169.304 127.825V125.98C169.304 125.64 169.029 125.365 168.689 125.365ZM166.844 124.75C166.165 124.75 165.614 125.3 165.614 125.98V127.825C165.614 128.504 166.165 129.055 166.844 129.055H168.689C169.368 129.055 169.919 128.504 169.919 127.825V125.98C169.919 125.3 169.368 124.75 168.689 124.75H166.844Z" fill="#E1E5EF"/>
<path opacity="0.5" fill-rule="evenodd" clip-rule="evenodd" d="M158.849 125.365H157.005C156.665 125.365 156.39 125.64 156.39 125.98V127.825C156.39 128.164 156.665 128.44 157.005 128.44H158.849C159.189 128.44 159.464 128.164 159.464 127.825V125.98C159.464 125.64 159.189 125.365 158.849 125.365ZM157.005 124.75C156.325 124.75 155.775 125.3 155.775 125.98V127.825C155.775 128.504 156.325 129.055 157.005 129.055H158.849C159.529 129.055 160.079 128.504 160.079 127.825V125.98C160.079 125.3 159.529 124.75 158.849 124.75H157.005Z" fill="#2447A3"/>
<path opacity="0.6" fill-rule="evenodd" clip-rule="evenodd" d="M202.513 125.365H200.668C200.329 125.365 200.053 125.64 200.053 125.98V127.825C200.053 128.164 200.329 128.44 200.668 128.44H202.513C202.853 128.44 203.128 128.164 203.128 127.825V125.98C203.128 125.64 202.853 125.365 202.513 125.365ZM200.668 124.75C199.989 124.75 199.438 125.3 199.438 125.98V127.825C199.438 128.504 199.989 129.055 200.668 129.055H202.513C203.193 129.055 203.743 128.504 203.743 127.825V125.98C203.743 125.3 203.193 124.75 202.513 124.75H200.668Z" fill="#E1E5EF"/>
<path opacity="0.72" d="M155.404 40.2876C155.404 38.6223 156.754 37.2722 158.419 37.2722H176.047C177.713 37.2722 179.063 38.6223 179.063 40.2876C179.063 41.953 177.713 43.303 176.047 43.303H158.419C156.754 43.303 155.404 41.953 155.404 40.2876Z" fill="#BEC9D9"/>
<defs>
<clipPath id="clip0">
<rect x="197.619" y="28.9219" width="6.4947" height="6.4947" fill="white"/>
</clipPath>
<clipPath id="clip1">
<rect x="177.053" y="123.827" width="5.53485" height="5.53485" fill="white"/>
</clipPath>
</defs>
</svg>
