<svg width="200" height="80" viewBox="0 0 200 80" fill="none" xmlns="http://www.w3.org/2000/svg">
<g clip-path="url(#clip0)">
<path d="M103.457 29.7993C103.457 30.3012 103.305 30.7919 103.019 31.2093C102.734 31.6267 102.328 31.952 101.853 32.1441C101.378 32.3362 100.855 32.3865 100.351 32.2885C99.8463 32.1906 99.3831 31.9489 99.0195 31.5939C98.656 31.239 98.4084 30.7867 98.3081 30.2944C98.2078 29.8021 98.2593 29.2918 98.456 28.828C98.6528 28.3642 98.986 27.9679 99.4135 27.689C99.841 27.4101 100.344 27.2612 100.858 27.2612C101.199 27.2605 101.538 27.3256 101.853 27.4529C102.169 27.5802 102.456 27.7671 102.698 28.0029C102.939 28.2388 103.131 28.5188 103.261 28.8271C103.391 29.1354 103.458 29.4658 103.457 29.7993ZM92.7439 34.9128V35.5377C92.252 35.0184 91.6503 34.6098 90.9805 34.3402C90.3108 34.0707 89.589 33.9465 88.8652 33.9764C87.8288 33.9622 86.8004 34.1535 85.8421 34.5389C84.8838 34.9243 84.0156 35.4957 83.2902 36.2185C82.5649 36.9412 81.9974 37.8003 81.6222 38.7435C81.2471 39.6868 81.0721 40.6946 81.1078 41.7059C81.0721 42.7171 81.2471 43.725 81.6222 44.6682C81.9974 45.6115 82.5649 46.4705 83.2902 47.1933C84.0156 47.916 84.8838 48.4874 85.8421 48.8728C86.8004 49.2582 87.8288 49.4496 88.8652 49.4353C89.5933 49.4698 90.32 49.3438 90.9915 49.0667C91.6629 48.7896 92.2618 48.3685 92.7439 47.8346V48.498C92.742 48.5703 92.7552 48.6423 92.7826 48.7095C92.8101 48.7767 92.8513 48.8377 92.9038 48.8889C92.9562 48.9401 93.0187 48.9803 93.0875 49.0071C93.1563 49.034 93.2301 49.0468 93.3041 49.045H96.5428V34.3668H93.3041C93.1567 34.3697 93.016 34.4281 92.9116 34.5299C92.8072 34.6316 92.7471 34.7688 92.7439 34.9128ZM92.7439 44.3218C92.373 44.8205 91.8859 45.2258 91.3227 45.5042C90.7595 45.7826 90.1365 45.9259 89.5052 45.9225C88.9169 45.9683 88.3253 45.8923 87.7691 45.6992C87.213 45.5062 86.705 45.2006 86.2783 44.8025C85.8516 44.4044 85.516 43.9227 85.2933 43.389C85.0707 42.8553 84.9661 42.2818 84.9865 41.7059C84.9661 41.13 85.0707 40.5564 85.2933 40.0227C85.516 39.4891 85.8516 39.0074 86.2783 38.6092C86.705 38.2111 87.213 37.9055 87.7691 37.7125C88.3253 37.5195 88.9169 37.4434 89.5052 37.4893C90.1349 37.4942 90.7549 37.6413 91.3167 37.919C91.8786 38.1967 92.367 38.5974 92.7439 39.09V44.3218ZM98.9415 34.3668H102.782V49.045H98.9415V34.3668ZM156.282 33.9764C155.558 33.9465 154.836 34.0707 154.167 34.3402C153.497 34.6098 152.895 35.0184 152.403 35.5377V27.3007H148.563V49.045H151.806C151.953 49.042 152.094 48.9835 152.198 48.8815C152.303 48.7796 152.363 48.6421 152.366 48.498V47.8346C152.852 48.3633 153.452 48.7809 154.122 49.0575C154.793 49.3342 155.517 49.4632 156.245 49.4353C157.28 49.4459 158.307 49.252 159.263 48.8653C160.22 48.4787 161.086 47.9072 161.811 47.1852C162.536 46.4632 163.103 45.6056 163.48 44.664C163.856 43.7224 164.034 42.7162 164.002 41.7059C164.035 40.6983 163.86 39.6945 163.486 38.7546C163.113 37.8148 162.548 36.9584 161.827 36.2366C161.107 35.5148 160.244 34.9426 159.291 34.5542C158.338 34.1658 157.315 33.9693 156.282 33.9764ZM155.642 45.883C155.01 45.8912 154.385 45.7499 153.821 45.4712C153.257 45.1924 152.771 44.7845 152.403 44.2823V39.0515C152.793 38.5722 153.284 38.181 153.843 37.9047C154.402 37.6284 155.016 37.4735 155.642 37.4508C156.23 37.405 156.822 37.481 157.378 37.674C157.934 37.8671 158.442 38.1726 158.869 38.5708C159.296 38.9689 159.631 39.4506 159.854 39.9843C160.076 40.5179 160.181 41.0915 160.161 41.6674C160.181 42.2429 160.076 42.816 159.854 43.3493C159.631 43.8825 159.296 44.3639 158.87 44.7619C158.444 45.1598 157.936 45.4654 157.381 45.6586C156.825 45.8519 156.234 45.9283 155.646 45.883H155.642ZM146.565 40.3398V49.0882H142.725V40.7656C142.725 38.3449 141.925 37.3691 139.771 37.3691C139.177 37.3857 138.593 37.5225 138.057 37.7707C137.52 38.0189 137.042 38.3732 136.652 38.8112V49.045H132.812V34.3668H135.854C136.001 34.3697 136.142 34.4283 136.246 34.5302C136.351 34.6322 136.411 34.7696 136.414 34.9138V35.5387C136.948 35.0202 137.586 34.6141 138.288 34.3456C138.989 34.0771 139.739 33.9518 140.493 33.9774C142.02 33.9271 143.512 34.4271 144.686 35.382C146.046 36.475 146.566 37.8815 146.566 40.3398H146.565ZM123.494 33.9764C122.77 33.9465 122.048 34.0707 121.378 34.3402C120.709 34.6098 120.107 35.0184 119.615 35.5377V27.3007H115.775V49.045H119.015C119.163 49.042 119.304 48.9835 119.408 48.8815C119.513 48.7796 119.573 48.6421 119.576 48.498V47.8346C120.062 48.3634 120.662 48.781 121.332 49.0576C122.002 49.3343 122.727 49.4632 123.454 49.4353C124.49 49.4459 125.516 49.252 126.473 48.8653C127.43 48.4787 128.296 47.9072 129.021 47.1852C129.745 46.4632 130.313 45.6056 130.69 44.664C131.066 43.7224 131.244 42.7162 131.212 41.7059C131.252 40.6967 131.081 39.6901 130.71 38.7475C130.339 37.8048 129.775 36.9457 129.053 36.2225C128.331 35.4994 127.466 34.9273 126.51 34.5412C125.554 34.155 124.528 33.9629 123.494 33.9764ZM122.856 45.883C122.224 45.8912 121.599 45.7499 121.035 45.4712C120.471 45.1924 119.984 44.7845 119.617 44.2823V39.0515C120.007 38.5722 120.498 38.181 121.057 37.9047C121.616 37.6284 122.23 37.4735 122.856 37.4508C123.444 37.405 124.036 37.481 124.592 37.674C125.148 37.8671 125.656 38.1726 126.083 38.5708C126.509 38.9689 126.845 39.4506 127.068 39.9843C127.29 40.5179 127.395 41.0915 127.374 41.6674C127.395 42.2432 127.29 42.8167 127.067 43.3502C126.845 43.8838 126.509 44.3654 126.082 44.7634C125.656 45.1614 125.148 45.4669 124.592 45.6599C124.035 45.8528 123.444 45.9289 122.856 45.883ZM112.457 33.9764C113.05 33.9569 113.643 34.0217 114.217 34.1687V37.6431C114.217 37.6431 111.018 36.5856 109.019 38.8141V49.0815H105.179V34.3668H108.417C108.565 34.3697 108.706 34.4283 108.81 34.5302C108.914 34.6322 108.974 34.7696 108.977 34.9138V35.5387C109.895 34.6088 111.137 34.051 112.457 33.9764ZM72.5912 47.7183C72.3942 47.2501 72.1914 46.7425 71.9915 46.3128C71.6715 45.61 71.3515 44.9467 71.0718 44.3218L71.0314 44.2823C68.2723 38.4266 65.3133 32.493 62.1987 26.6335L62.0786 26.3989C61.7586 25.8134 61.4386 25.1885 61.1185 24.5636C60.7243 23.7967 60.2413 23.0764 59.6789 22.4169C59.075 21.6642 58.3036 21.0555 57.4231 20.6368C56.5427 20.2181 55.5763 20.0003 54.5969 20C53.6203 20.0031 52.6562 20.2143 51.7718 20.6188C50.8874 21.0233 50.1041 21.6113 49.4765 22.3419C48.9287 23.0115 48.4476 23.7307 48.0399 24.4896C47.7199 25.1145 47.3998 25.7394 47.0798 26.3249L46.9597 26.5594C43.8835 32.4142 40.8822 38.3488 38.1231 44.2045L38.0827 44.2823C37.803 44.9072 37.483 45.5706 37.163 46.2734C36.966 46.7028 36.7662 47.1713 36.5633 47.6789C36.0524 49.0249 35.8877 50.4728 36.0838 51.8955C36.2979 53.3238 36.89 54.673 37.8016 55.8095C38.7133 56.9461 39.9129 57.8307 41.2819 58.3761C42.307 58.7963 43.4088 59.0089 44.5206 59.001C44.8675 58.994 45.2137 58.9677 45.5575 58.9221C46.9684 58.7469 48.3285 58.2953 49.5563 57.5945C51.4226 56.5097 53.0979 55.1389 54.5182 53.5346C55.9462 55.1297 57.6186 56.4992 59.4761 57.5945C60.7051 58.2958 62.0666 58.7474 63.4788 58.9221C63.8236 58.9675 64.1708 58.9935 64.5187 59C65.6308 59.0117 66.7334 58.7989 67.7573 58.3751C69.1273 57.8312 70.3278 56.9469 71.2397 55.8101C72.1515 54.6733 72.743 53.3234 72.9555 51.8945C73.2503 50.4973 73.1238 49.0467 72.5912 47.7183ZM54.5575 49.7478C52.6896 47.641 51.3122 45.1636 50.5203 42.4865C50.3253 41.7074 50.2845 40.8992 50.4002 40.1052C50.4791 39.5171 50.6983 38.9553 51.0402 38.4651C51.4413 37.9227 51.9708 37.4831 52.5837 37.184C53.1965 36.8848 53.8744 36.7349 54.5595 36.7471C55.2467 36.7219 55.9293 36.8661 56.5444 37.1663C57.1595 37.4666 57.6872 37.9132 58.0788 38.4651C58.4207 38.9553 58.64 39.5171 58.7189 40.1052C58.8352 40.8991 58.7945 41.7075 58.5987 42.4865C57.7886 45.157 56.4116 47.6311 54.5575 49.7478ZM70.5095 51.583C70.3651 52.5892 69.9526 53.5406 69.3132 54.3422C68.6738 55.1438 67.83 55.7673 66.8662 56.1505C65.9043 56.5329 64.8579 56.6673 63.8274 56.5408C62.7538 56.4101 61.7193 56.0645 60.7887 55.5256C59.0706 54.5108 57.5315 53.2321 56.2305 51.7388C58.4892 49.2561 60.1435 46.3067 61.0693 43.1114C61.3283 42.0242 61.395 40.9018 61.2662 39.7927C61.117 38.839 60.7465 37.9311 60.1831 37.1384C59.5466 36.262 58.6999 35.5511 57.717 35.0679C56.7341 34.5848 55.6449 34.344 54.5447 34.3668C53.446 34.3526 52.36 34.5972 51.3785 35.0796C50.3971 35.5621 49.5491 36.2682 48.9064 37.1384C48.343 37.9311 47.9725 38.839 47.8232 39.7927C47.6533 40.9004 47.7204 42.0303 48.0202 43.1114C48.6199 45.6879 50.2594 48.6162 52.859 51.7782C51.5713 53.2793 50.0353 54.5592 48.3146 55.565C47.3855 56.1033 46.3527 56.4489 45.2808 56.5802C44.2504 56.6923 43.2076 56.5584 42.242 56.1899C41.2782 55.8068 40.4344 55.1832 39.795 54.3816C39.1556 53.58 38.7431 52.6286 38.5987 51.6224C38.4672 50.5936 38.5911 49.549 38.96 48.5768C39.0802 48.1865 39.2801 47.7962 39.48 47.327C39.7596 46.7021 40.0796 46.0388 40.3997 45.3754L40.44 45.2976C43.1972 39.4803 46.1581 33.5467 49.2373 27.7689L49.3574 27.5343C49.6774 26.9488 49.9974 26.3239 50.3175 25.7384C50.6195 25.1244 50.9953 24.5477 51.4371 24.0205C51.8311 23.5672 52.3215 23.2031 52.8741 22.9534C53.4267 22.7037 54.0284 22.5743 54.6373 22.5743C55.2462 22.5743 55.8479 22.7037 56.4005 22.9534C56.9531 23.2031 57.4435 23.5672 57.8376 24.0205C58.2793 24.5477 58.6552 25.1244 58.9571 25.7384C59.2772 26.3239 59.5972 26.9488 59.9172 27.5343L60.0374 27.7689C63.0741 33.5861 66.0331 39.5159 68.7962 45.337V45.3802C69.1162 46.0051 69.3959 46.7079 69.7159 47.3318C69.9128 47.8 70.1157 48.1903 70.2358 48.5816C70.5637 49.5479 70.6581 50.5752 70.5115 51.583H70.5095Z" fill="#FF5A5F"/>
</g>
<defs>
<clipPath id="clip0">
<rect x="36" y="20" width="128" height="39" fill="white"/>
</clipPath>
</defs>
</svg>
