<svg width="180" height="145" viewBox="0 0 180 145" fill="none" xmlns="http://www.w3.org/2000/svg">
<path d="M1.58502 74.8772C0.889282 72.9362 1.90877 70.7776 3.84977 70.0818L31.7837 60.0692L49.7835 68.57L65.1949 111.566C65.8906 113.507 64.8711 115.665 62.9301 116.361L25.2759 129.858C23.3349 130.554 21.1763 129.534 20.4805 127.593L1.58502 74.8772Z" fill="#F7F9FE" stroke="#D9E1E9" stroke-width="0.5"/>
<path fill-rule="evenodd" clip-rule="evenodd" d="M44.4504 87.2075L38.0114 105.729L21.2705 95.5138L21.2753 95.5121L25.2697 87.6337L25.2697 87.6337L25.2698 87.6337L36.355 83.6603L36.3561 83.6599L36.3562 83.6608L44.4509 87.205L44.4513 87.2049L44.4512 87.2052L44.4538 87.2063L44.4504 87.2075Z" fill="#FFA200"/>
<path d="M39.9428 71.9873L49.9839 68.3881L31.7969 59.7988L35.396 69.8399C36.0559 71.6808 38.1019 72.6471 39.9428 71.9873Z" fill="#E1E5EF"/>
<path d="M68.6907 5.48414C68.6491 3.42263 70.3028 1.70089 72.3643 1.65934L102.033 1.06144L116.389 14.8507L117.309 60.5157C117.351 62.5772 115.697 64.2989 113.636 64.3405L73.6438 65.1465C71.5823 65.188 69.8605 63.5343 69.819 61.4728L68.6907 5.48414Z" fill="#F4F8FD" stroke="#D9E1E9" stroke-width="0.5"/>
<rect x="80.3431" y="22.5862" width="24.8889" height="24.8889" rx="2" transform="rotate(-1.15453 80.3431 22.5862)" fill="#2255B6"/>
<path d="M88.704 41.0881L85.1861 29.5203L87.4527 29.4746L89.7211 37.9817L89.8291 37.9796L91.895 29.3851L93.957 29.3435L96.3733 37.8534L96.4756 37.8513L98.3993 29.254L100.666 29.2083L97.6169 40.9085L95.5378 40.9504L93.0442 32.8342L92.9533 32.836L90.7831 41.0462L88.704 41.0881Z" fill="white"/>
<path d="M105.972 14.9571L116.637 14.7422L102.131 0.809448L102.346 11.4739C102.385 13.4291 104.017 14.9965 105.972 14.9571Z" fill="#E1E5EF"/>
<path d="M135.772 68.6042C136.788 66.8098 139.088 66.1722 140.883 67.1879L166.707 81.8045L172.024 100.988L149.526 140.737C148.51 142.531 146.21 143.169 144.415 142.153L109.604 122.45C107.81 121.434 107.172 119.134 108.188 117.339L135.772 68.6042Z" fill="#F4F8FD" stroke="#D9E1E9" stroke-width="0.5"/>
<rect x="137.073" y="89.2577" width="24.8889" height="24.8889" rx="2" transform="rotate(29.5098 137.073 89.2577)" fill="#128E52"/>
<path d="M142.165 100.218L142.296 105.189L142.375 105.234L146.714 102.793L148.806 103.977L142.82 107.274L143.123 114.132L140.997 112.928L140.827 107.968L140.748 107.923L136.408 110.331L134.292 109.133L140.357 105.88L140.063 99.0286L142.165 100.218Z" fill="white"/>
<path d="M163.009 95.7665L172.292 101.021L166.92 81.6379L161.666 90.9208C160.703 92.6227 161.307 94.8033 163.009 95.7665Z" fill="#E1E5EF"/>
</svg>
