<svg width="20" height="20" viewBox="0 0 20 20" fill="none" xmlns="http://www.w3.org/2000/svg">
<g clip-path="url(#clip0)">
<path d="M4.43242 12.0862L3.73625 14.6851L1.19176 14.7389C0.431328 13.3285 0 11.7147 0 9.99991C0 8.34166 0.403281 6.77791 1.11812 5.401H1.11867L3.38398 5.81631L4.37633 8.06803C4.16863 8.67354 4.05543 9.32354 4.05543 9.99991C4.05551 10.734 4.18848 11.4373 4.43242 12.0862Z" fill="#FBBB00"/>
<path d="M19.8254 8.13184C19.9402 8.73676 20.0001 9.36148 20.0001 9.99996C20.0001 10.7159 19.9249 11.4143 19.7815 12.0879C19.2947 14.3802 18.0227 16.3818 16.2606 17.7983L16.26 17.7978L13.4068 17.6522L13.0029 15.1313C14.1722 14.4456 15.0859 13.3725 15.5672 12.0879H10.22V8.13184H15.6452H19.8254Z" fill="#518EF8"/>
<path d="M16.2598 17.7978L16.2603 17.7984C14.5466 19.1758 12.3697 20 9.99989 20C6.19165 20 2.88067 17.8715 1.19165 14.739L4.43231 12.0863C5.27681 14.3401 7.45099 15.9445 9.99989 15.9445C11.0955 15.9445 12.1219 15.6484 13.0026 15.1313L16.2598 17.7978Z" fill="#28B446"/>
<path d="M16.383 2.30219L13.1434 4.95437C12.2319 4.38461 11.1544 4.05547 10 4.05547C7.39344 4.05547 5.17859 5.73348 4.37641 8.06812L1.11871 5.40109H1.11816C2.78246 2.1923 6.1352 0 10 0C12.4264 0 14.6511 0.864297 16.383 2.30219Z" fill="#F14336"/>
</g>
<defs>
<clipPath id="clip0">
<rect width="20" height="20" fill="white"/>
</clipPath>
</defs>
</svg>
