<svg width="200" height="80" viewBox="0 0 200 80" fill="none" xmlns="http://www.w3.org/2000/svg">
<path d="M91.5128 40.513C91.5128 46.0652 87.3259 50.1565 82.1875 50.1565C77.0491 50.1565 72.8621 46.0652 72.8621 40.513C72.8621 34.9217 77.0491 30.8696 82.1875 30.8696C87.3259 30.8696 91.5128 34.9217 91.5128 40.513ZM87.4306 40.513C87.4306 37.0435 85.004 34.6696 82.1875 34.6696C79.371 34.6696 76.9443 37.0435 76.9443 40.513C76.9443 43.9478 79.371 46.3565 82.1875 46.3565C85.004 46.3565 87.4306 43.9435 87.4306 40.513Z" fill="#EA4335"/>
<path d="M111.631 40.513C111.631 46.0652 107.444 50.1565 102.305 50.1565C97.1668 50.1565 92.9798 46.0652 92.9798 40.513C92.9798 34.9261 97.1668 30.8696 102.305 30.8696C107.444 30.8696 111.631 34.9217 111.631 40.513ZM107.548 40.513C107.548 37.0435 105.122 34.6696 102.305 34.6696C99.4887 34.6696 97.062 37.0435 97.062 40.513C97.062 43.9478 99.4887 46.3565 102.305 46.3565C105.122 46.3565 107.548 43.9435 107.548 40.513Z" fill="#FBBC05"/>
<path d="M130.91 31.4522V48.7652C130.91 55.887 126.861 58.7957 122.075 58.7957C117.569 58.7957 114.858 55.6696 113.835 53.1131L117.389 51.5783C118.022 53.1478 119.573 55 122.071 55C125.135 55 127.033 53.0391 127.033 49.3478V47.9609H126.891C125.977 49.1304 124.217 50.1522 121.995 50.1522C117.347 50.1522 113.089 45.9522 113.089 40.5478C113.089 35.1044 117.347 30.8696 121.995 30.8696C124.212 30.8696 125.973 31.8913 126.891 33.0261H127.033V31.4565H130.91V31.4522ZM127.322 40.5478C127.322 37.1522 125.139 34.6696 122.36 34.6696C119.543 34.6696 117.184 37.1522 117.184 40.5478C117.184 43.9087 119.543 46.3565 122.36 46.3565C125.139 46.3565 127.322 43.9087 127.322 40.5478Z" fill="#4285F4"/>
<path d="M137.301 21.3044V49.5652H133.32V21.3044H137.301Z" fill="#34A853"/>
<path d="M152.817 43.687L155.986 45.8783C154.963 47.4478 152.499 50.1522 148.24 50.1522C142.96 50.1522 139.016 45.9174 139.016 40.5087C139.016 34.7739 142.993 30.8652 147.784 30.8652C152.608 30.8652 154.967 34.8478 155.738 37L156.162 38.0956L143.735 43.4348C144.686 45.3696 146.166 46.3565 148.24 46.3565C150.319 46.3565 151.761 45.2956 152.817 43.687ZM143.064 40.2174L151.371 36.6391C150.914 35.4348 149.54 34.5956 147.922 34.5956C145.847 34.5956 142.96 36.4956 143.064 40.2174Z" fill="#EA4335"/>
<path d="M57.7907 38.0043V33.913H71.0809C71.2108 34.6261 71.2779 35.4696 71.2779 36.3826C71.2779 39.4522 70.469 43.2478 67.8621 45.9522C65.3264 48.6913 62.0866 50.1522 57.7949 50.1522C49.84 50.1522 43.1509 43.4304 43.1509 35.1783C43.1509 26.9261 49.84 20.2043 57.7949 20.2043C62.1956 20.2043 65.3306 21.9957 67.686 24.3304L64.9031 27.2174C63.214 25.5739 60.9257 24.2957 57.7907 24.2957C51.9817 24.2957 47.4385 29.1522 47.4385 35.1783C47.4385 41.2043 51.9817 46.0609 57.7907 46.0609C61.5585 46.0609 63.7044 44.4913 65.0791 43.0652C66.194 41.9087 66.9274 40.2565 67.2166 38L57.7907 38.0043Z" fill="#4285F4"/>
</svg>
