<svg width="200" height="80" viewBox="0 0 200 80" fill="none" xmlns="http://www.w3.org/2000/svg">
<g clip-path="url(#clip0)">
<path d="M74.8712 30.6687H79.3498V50.5767H74.8712V42.1411H67.3252V50.5767H62.8467V30.6687H67.3252V38.2761H74.8712V30.6687ZM96.5583 50.0552C95.8221 50.2699 94.9019 50.454 93.7363 50.638C92.6013 50.8221 91.3743 50.9141 90.1166 50.9141C88.8283 50.9141 87.7547 50.73 86.9264 50.3926C86.0675 50.0552 85.3927 49.5644 84.9019 48.9509C84.4111 48.3374 84.043 47.5705 83.8283 46.7116C83.6136 45.8528 83.5215 44.9018 83.5215 43.8589V35.454H87.816V43.3681C87.816 44.7485 88.0001 45.7301 88.3682 46.3435C88.7363 46.957 89.4111 47.2638 90.4234 47.2638C90.7301 47.2638 91.0675 47.2638 91.405 47.2331C91.7424 47.2024 92.0491 47.1718 92.3252 47.1411V35.4847H96.6197V50.0552H96.5583ZM114.657 43.0307C114.657 44.227 114.472 45.3313 114.135 46.3129C113.767 47.2945 113.276 48.1227 112.601 48.8282C111.926 49.5031 111.098 50.0552 110.117 50.4233C109.135 50.7914 108.031 50.9754 106.773 50.9754C106.252 50.9754 105.699 50.9448 105.147 50.9141C104.595 50.8527 104.012 50.7914 103.491 50.73C102.939 50.6687 102.417 50.5767 101.926 50.454C101.436 50.3619 100.976 50.2393 100.607 50.1166V30.6994L104.902 30.0245V35.8221C105.393 35.6074 105.883 35.454 106.405 35.3313C106.926 35.2086 107.479 35.1472 108.061 35.1472C109.135 35.1472 110.086 35.3313 110.914 35.6994C111.742 36.0675 112.417 36.6196 112.969 37.2945C113.522 37.9693 113.951 38.8282 114.227 39.7791C114.503 40.7607 114.657 41.8343 114.657 43.0307ZM110.27 42.908C110.27 40.1472 109.258 38.7669 107.233 38.7669C106.804 38.7669 106.344 38.8282 105.914 38.9509C105.485 39.0736 105.147 39.1963 104.871 39.3804V47.1718C105.086 47.2024 105.362 47.2331 105.669 47.2638C106.006 47.2945 106.344 47.2945 106.742 47.2945C107.908 47.2945 108.798 46.8957 109.38 46.0981C109.994 45.3006 110.27 44.227 110.27 42.908ZM122.295 47.5092C123.092 47.5092 123.644 47.4478 123.951 47.2638C124.288 47.1104 124.442 46.8037 124.442 46.3742C124.442 46.0368 124.227 45.73 123.798 45.454C123.368 45.2086 122.724 44.9018 121.865 44.5644C121.19 44.319 120.577 44.0429 120.025 43.7975C119.472 43.5215 119.012 43.2147 118.644 42.8466C118.245 42.4785 117.969 42.0184 117.755 41.4969C117.54 40.9755 117.448 40.362 117.448 39.6258C117.448 38.2147 117.969 37.0797 119.043 36.2515C120.086 35.4233 121.558 35.0245 123.368 35.0245C124.288 35.0245 125.178 35.1166 126.006 35.2699C126.834 35.4233 127.509 35.6074 128.031 35.7914L127.295 39.135C126.804 38.9509 126.252 38.7975 125.669 38.6748C125.086 38.5521 124.442 38.4601 123.706 38.4601C122.356 38.4601 121.681 38.8282 121.681 39.5951C121.681 39.7791 121.712 39.9325 121.773 40.0552C121.834 40.1779 121.957 40.3313 122.11 40.454C122.295 40.5767 122.509 40.6994 122.816 40.8528C123.123 41.0061 123.491 41.1595 123.951 41.3435C124.902 41.681 125.669 42.0491 126.282 42.3865C126.896 42.7239 127.387 43.092 127.724 43.4908C128.092 43.8896 128.337 44.319 128.46 44.8098C128.583 45.3006 128.675 45.8527 128.675 46.4662C128.675 47.9693 128.123 49.0736 126.988 49.8405C125.853 50.6073 124.288 50.9754 122.233 50.9754C120.883 50.9754 119.779 50.8527 118.89 50.638C118 50.4233 117.387 50.2086 117.049 50.0552L117.755 46.5889C118.491 46.865 119.227 47.1104 119.994 47.2638C120.791 47.4172 121.558 47.5092 122.295 47.5092ZM131.742 30.6994L136.037 30.0245V35.4847H141.19V39.0429H136.037V44.3497C136.037 45.2393 136.19 45.9754 136.497 46.4969C136.804 47.0491 137.448 47.2945 138.399 47.2945C138.859 47.2945 139.319 47.2638 139.81 47.1718C140.301 47.0797 140.73 46.957 141.16 46.8037L141.773 50.1472C141.252 50.3619 140.669 50.546 140.055 50.6994C139.411 50.8527 138.644 50.9448 137.724 50.9448C136.558 50.9448 135.577 50.7914 134.81 50.4846C134.043 50.1779 133.43 49.7178 132.969 49.1656C132.509 48.6135 132.203 47.908 132.018 47.1104C131.834 46.3129 131.742 45.4233 131.742 44.4417V30.6994ZM149.503 35.0552C150.761 35.0552 151.834 35.2086 152.663 35.4847C153.491 35.7607 154.196 36.1902 154.687 36.7116C155.209 37.2638 155.546 37.908 155.761 38.6748C155.976 39.4417 156.068 40.3006 156.068 41.2208V50.1472C155.454 50.2699 154.595 50.454 153.522 50.6073C152.417 50.7914 151.098 50.8834 149.564 50.8834C148.583 50.8834 147.693 50.7914 146.896 50.638C146.098 50.454 145.423 50.1779 144.841 49.7791C144.258 49.3804 143.828 48.8589 143.522 48.2454C143.215 47.6012 143.061 46.8343 143.061 45.9141C143.061 45.0245 143.245 44.2883 143.583 43.6748C143.951 43.0613 144.411 42.5705 144.994 42.2024C145.577 41.8343 146.282 41.5889 147.049 41.4049C147.816 41.2515 148.614 41.1595 149.442 41.1595C149.994 41.1595 150.485 41.1902 150.914 41.2208C151.344 41.2822 151.681 41.3435 151.957 41.4049V41.0061C151.957 40.2699 151.742 39.6871 151.282 39.2577C150.853 38.8282 150.086 38.5828 148.982 38.5828C148.245 38.5828 147.54 38.6442 146.834 38.7362C146.129 38.8282 145.515 38.9816 144.994 39.1963L144.442 35.7607C144.687 35.6994 144.994 35.6074 145.362 35.5153C145.73 35.4233 146.129 35.362 146.589 35.2699C147.018 35.2086 147.509 35.1472 147.969 35.0859C148.522 35.0859 149.012 35.0552 149.503 35.0552ZM149.871 47.6012C150.301 47.6012 150.699 47.6012 151.068 47.5705C151.436 47.5399 151.742 47.5092 151.988 47.4785V44.227C151.804 44.1963 151.558 44.1656 151.221 44.1043C150.883 44.0736 150.546 44.0429 150.27 44.0429C149.871 44.0429 149.503 44.0736 149.135 44.1043C148.767 44.1656 148.46 44.2577 148.215 44.3804C147.939 44.5031 147.724 44.6871 147.571 44.9325C147.417 45.1779 147.325 45.454 147.325 45.7914C147.325 46.4662 147.54 46.9264 148 47.1718C148.46 47.4785 149.074 47.6012 149.871 47.6012ZM166.528 30.0859C167.325 30.0859 168.061 30.1779 168.736 30.3313C169.411 30.4847 169.933 30.638 170.301 30.7914L169.472 34.227C169.104 34.0429 168.675 33.9202 168.215 33.8282C167.755 33.7362 167.356 33.7055 166.957 33.7055C166.436 33.7055 166.006 33.7669 165.638 33.9202C165.27 34.0736 164.994 34.2577 164.81 34.5031C164.595 34.7485 164.472 35.0552 164.38 35.3926C164.288 35.7301 164.258 36.0982 164.258 36.5276V37.2638H169.534V40.8221H164.258V50.5767H159.963V36.4663C159.963 34.5031 160.515 32.9693 161.62 31.8037C162.724 30.6687 164.38 30.0859 166.528 30.0859ZM178.583 30.0859C179.38 30.0859 180.117 30.1779 180.791 30.3313C181.466 30.4847 181.988 30.638 182.356 30.7914L181.497 34.227C181.129 34.0429 180.699 33.9202 180.239 33.8282C179.779 33.7362 179.38 33.7055 178.982 33.7055C178.46 33.7055 178.031 33.7669 177.663 33.9202C177.295 34.0736 177.018 34.2577 176.834 34.5031C176.62 34.7485 176.497 35.0552 176.405 35.3926C176.313 35.7301 176.282 36.0982 176.282 36.5276V37.2638H181.558V40.8221H176.282V50.5767H171.988V36.4663C171.988 34.5031 172.54 32.9693 173.644 31.8037C174.779 30.6687 176.405 30.0859 178.583 30.0859Z" fill="#233E53"/>
<path d="M22.2025 53.3374L29.9939 57.8466C30.4233 58.092 30.9755 58 31.3129 57.6012C32.2945 56.4049 33.7669 55.6687 35.4233 55.6687C37.0798 55.6687 38.5828 56.4356 39.5644 57.6319C39.9018 58.0307 40.454 58.1534 40.8834 57.8773L48.7055 53.3374C49.227 53.0307 49.3804 52.3558 49.0429 51.865C48.6748 51.3129 48.2454 50.7607 47.8159 50.2393C46.6503 48.8896 45.2086 47.7546 43.6442 46.865L42.6012 46.2515L42.5399 46.2208L42.3558 46.1288C42.0184 45.9755 41.6503 46.0675 41.4049 46.3129C39.9325 47.9386 37.8159 48.9509 35.4233 48.9509C33.0613 48.9509 30.9448 47.9386 29.4724 46.3129C29.227 46.0368 28.8589 45.9755 28.5215 46.1288L27.2945 46.8343C25.3313 47.9693 23.5828 49.4724 22.2331 51.2822C22.0798 51.4663 21.9571 51.681 21.8344 51.865C21.5276 52.3865 21.7117 53.0307 22.2025 53.3374Z" fill="#2B4AF8"/>
<path d="M23.4908 27.6319C23.0614 27.8773 22.8773 28.3988 23.0307 28.8896C23.5828 30.3313 23.4908 32.0184 22.6626 33.4601C21.8344 34.9018 20.4233 35.7914 18.8896 36.0368C18.3681 36.0981 18 36.5276 18 37.0491V46.0368C18 46.6196 18.4908 47.1104 19.0736 47.0491C21.4356 46.8957 23.6748 46.2515 25.6687 45.1779L26.6196 44.6258C26.865 44.4724 27.1411 44.2883 27.3865 44.135C27.6933 43.9202 27.816 43.5521 27.6933 43.2147C27.0798 41.1595 27.2638 38.8282 28.4295 36.8037C29.6258 34.7791 31.5276 33.4601 33.6748 32.9693C34.0123 32.908 34.2883 32.6012 34.319 32.2638C34.3497 31.865 34.3804 31.4356 34.3804 31.0061V30.362C34.3497 27.908 33.7669 25.6074 32.7546 23.5215C32.5092 23 31.8344 22.7853 31.3129 23.092L23.4908 27.6319Z" fill="#1F91F8"/>
<path d="M48.2761 33.4295C47.4479 31.9877 47.3558 30.3313 47.908 28.8589C48.092 28.3988 47.908 27.8466 47.4479 27.6012L39.5644 23.1227C39.043 22.816 38.3988 23.0307 38.1227 23.5522C37.1104 25.6381 36.5276 27.9387 36.4969 30.3927V31.0368C36.4969 31.4663 36.5276 31.865 36.5583 32.2945C36.589 32.6319 36.865 32.9387 37.2025 33C39.319 33.4601 41.2515 34.7792 42.4479 36.8344C43.6135 38.8589 43.8282 41.1902 43.1841 43.2454C43.092 43.5828 43.2147 43.9509 43.4908 44.1657C43.7362 44.3497 43.9816 44.5031 44.2577 44.6565L45.2086 45.2086C47.2025 46.2515 49.4111 46.9264 51.8037 47.0798C52.3865 47.1104 52.8773 46.6503 52.8773 46.0675V37.0798C52.8773 36.589 52.5092 36.1595 52.0184 36.0675C50.5154 35.7914 49.1043 34.8712 48.2761 33.4295Z" fill="#5BB6F8"/>
</g>
<defs>
<clipPath id="clip0">
<rect x="18" y="23" width="164.356" height="35" fill="white"/>
</clipPath>
</defs>
</svg>
