<svg width="24" height="24" viewBox="0 0 24 24" fill="none" xmlns="http://www.w3.org/2000/svg">
<path d="M12.0002 9C11.2046 9 10.4415 9.31607 9.87892 9.87868C9.31631 10.4413 9.00024 11.2044 9.00024 12C9.00024 12.7956 9.31631 13.5587 9.87892 14.1213C10.4415 14.6839 11.2046 15 12.0002 15C12.7959 15 13.559 14.6839 14.1216 14.1213C14.6842 13.5587 15.0002 12.7956 15.0002 12C15.0002 11.2044 14.6842 10.4413 14.1216 9.87868C13.559 9.31607 12.7959 9 12.0002 9ZM12.0002 7C13.3263 7 14.5981 7.52678 15.5358 8.46447C16.4735 9.40215 17.0002 10.6739 17.0002 12C17.0002 13.3261 16.4735 14.5979 15.5358 15.5355C14.5981 16.4732 13.3263 17 12.0002 17C10.6742 17 9.40239 16.4732 8.46471 15.5355C7.52703 14.5979 7.00024 13.3261 7.00024 12C7.00024 10.6739 7.52703 9.40215 8.46471 8.46447C9.40239 7.52678 10.6742 7 12.0002 7ZM18.5002 6.75C18.5002 7.08152 18.3685 7.39946 18.1341 7.63388C17.8997 7.8683 17.5818 8 17.2502 8C16.9187 8 16.6008 7.8683 16.3664 7.63388C16.1319 7.39946 16.0002 7.08152 16.0002 6.75C16.0002 6.41848 16.1319 6.10054 16.3664 5.86612C16.6008 5.6317 16.9187 5.5 17.2502 5.5C17.5818 5.5 17.8997 5.6317 18.1341 5.86612C18.3685 6.10054 18.5002 6.41848 18.5002 6.75ZM12.0002 4C9.52624 4 9.12224 4.007 7.97124 4.058C7.18724 4.095 6.66124 4.2 6.17324 4.39C5.73924 4.558 5.42624 4.759 5.09324 5.093C4.78025 5.3954 4.5396 5.76458 4.38924 6.173C4.19924 6.663 4.09424 7.188 4.05824 7.971C4.00624 9.075 4.00024 9.461 4.00024 12C4.00024 14.474 4.00724 14.878 4.05824 16.029C4.09524 16.812 4.20024 17.339 4.38924 17.826C4.55924 18.261 4.75924 18.574 5.09124 18.906C5.42824 19.242 5.74124 19.443 6.17124 19.609C6.66524 19.8 7.19124 19.906 7.97124 19.942C9.07524 19.994 9.46124 20 12.0002 20C14.4742 20 14.8782 19.993 16.0292 19.942C16.8112 19.905 17.3382 19.8 17.8262 19.611C18.2592 19.442 18.5742 19.241 18.9062 18.909C19.2432 18.572 19.4442 18.259 19.6102 17.829C19.8002 17.336 19.9062 16.809 19.9422 16.029C19.9942 14.925 20.0002 14.539 20.0002 12C20.0002 9.526 19.9932 9.122 19.9422 7.971C19.9052 7.189 19.8002 6.661 19.6102 6.173C19.4595 5.765 19.2193 5.39596 18.9072 5.093C18.605 4.77985 18.2358 4.53917 17.8272 4.389C17.3372 4.199 16.8112 4.094 16.0292 4.058C14.9252 4.006 14.5392 4 12.0002 4ZM12.0002 2C14.7172 2 15.0562 2.01 16.1222 2.06C17.1872 2.11 17.9122 2.277 18.5502 2.525C19.2102 2.779 19.7662 3.123 20.3222 3.678C20.8307 4.1779 21.2242 4.78259 21.4752 5.45C21.7222 6.087 21.8902 6.813 21.9402 7.878C21.9872 8.944 22.0002 9.283 22.0002 12C22.0002 14.717 21.9902 15.056 21.9402 16.122C21.8902 17.187 21.7222 17.912 21.4752 18.55C21.2249 19.2178 20.8314 19.8226 20.3222 20.322C19.8222 20.8303 19.2176 21.2238 18.5502 21.475C17.9132 21.722 17.1872 21.89 16.1222 21.94C15.0562 21.987 14.7172 22 12.0002 22C9.28324 22 8.94424 21.99 7.87824 21.94C6.81324 21.89 6.08824 21.722 5.45024 21.475C4.78257 21.2245 4.17777 20.8309 3.67824 20.322C3.16965 19.8222 2.77618 19.2175 2.52524 18.55C2.27724 17.913 2.11024 17.187 2.06024 16.122C2.01324 15.056 2.00024 14.717 2.00024 12C2.00024 9.283 2.01024 8.944 2.06024 7.878C2.11024 6.812 2.27724 6.088 2.52524 5.45C2.77548 4.78218 3.16905 4.17732 3.67824 3.678C4.17792 3.16923 4.78267 2.77573 5.45024 2.525C6.08824 2.277 6.81224 2.11 7.87824 2.06C8.94424 2.013 9.28324 2 12.0002 2Z" fill="white"/>
</svg>
