<svg width="137" height="34" viewBox="0 0 137 34" fill="none" xmlns="http://www.w3.org/2000/svg">
<path d="M56.4055 14.5078C56.3458 13.9495 56.0965 13.5149 55.6576 13.2038C55.2187 12.8927 54.6455 12.7372 53.9381 12.7372C53.1967 12.7372 52.6171 12.8991 52.1995 13.223C51.7819 13.5426 51.571 13.9495 51.5667 14.4438C51.5624 14.8061 51.6711 15.1065 51.8927 15.3451C52.1143 15.5795 52.3955 15.767 52.7364 15.9076C53.0816 16.0483 53.4332 16.1612 53.7911 16.2464L55.0184 16.5532C55.6746 16.7066 56.2947 16.9346 56.8785 17.2372C57.4666 17.5355 57.9438 17.936 58.3103 18.4389C58.681 18.9375 58.8664 19.566 58.8664 20.3245C58.8621 21.4794 58.4254 22.4147 57.556 23.1306C56.6867 23.8423 55.468 24.1981 53.8998 24.1981C52.3742 24.1981 51.1576 23.8465 50.2499 23.1434C49.3423 22.436 48.865 21.4325 48.8181 20.1328H51.1512C51.1981 20.8188 51.4793 21.3302 51.995 21.6669C52.5106 22.0035 53.1391 22.1718 53.8806 22.1718C54.6562 22.1718 55.2847 22.0014 55.7663 21.6605C56.2478 21.3153 56.4907 20.8636 56.495 20.3054C56.4907 19.7983 56.2734 19.4147 55.843 19.1548C55.4168 18.8906 54.8501 18.669 54.1427 18.49L52.6533 18.1065C51.5752 17.8295 50.7229 17.4098 50.0965 16.8473C49.4744 16.2805 49.1633 15.5284 49.1633 14.5909C49.1633 13.8196 49.3721 13.1441 49.7897 12.5646C50.2073 11.985 50.7783 11.5355 51.5028 11.2159C52.2315 10.892 53.0539 10.7301 53.9701 10.7301C54.8991 10.7301 55.7151 10.892 56.4183 11.2159C57.1214 11.5355 57.6711 11.9808 58.0674 12.5518C58.468 13.1186 58.6746 13.7706 58.6874 14.5078H56.4055Z" fill="#0F1727"/>
<path d="M63.8836 24.1981C62.9461 24.1981 62.1641 23.9467 61.5377 23.4438C60.9113 22.941 60.5981 22.2081 60.5981 21.245C60.5981 20.5078 60.7749 19.9367 61.1286 19.5319C61.4866 19.1228 61.9489 18.8267 62.5157 18.6434C63.0867 18.4559 63.6897 18.3281 64.3246 18.2599C65.1897 18.1661 65.8097 18.0788 66.1847 17.9978C66.564 17.9169 66.7536 17.7102 66.7536 17.3778V17.3394C66.7536 16.8579 66.6109 16.485 66.3254 16.2208C66.0398 15.9566 65.6286 15.8245 65.0917 15.8245C64.5249 15.8245 64.0754 15.9481 63.743 16.1953C63.4148 16.4424 63.1933 16.7343 63.0782 17.071L60.9177 16.7642C61.1734 15.8693 61.6719 15.1938 62.4134 14.7379C63.1592 14.2819 64.0477 14.0539 65.0789 14.0539C65.5477 14.0539 66.0164 14.1093 66.4852 14.2201C66.9539 14.3309 67.3822 14.5142 67.77 14.7698C68.162 15.0255 68.4752 15.3707 68.7096 15.8054C68.9482 16.24 69.0675 16.7812 69.0675 17.4289V24H66.8431V22.6512H66.7664C66.5576 23.0646 66.2167 23.4268 65.7437 23.7379C65.2749 24.0447 64.6549 24.1981 63.8836 24.1981ZM64.4844 22.4978C65.1833 22.4978 65.7373 22.2975 66.1464 21.897C66.5555 21.4964 66.76 21.0234 66.76 20.4779V19.321C66.662 19.4019 66.4809 19.4744 66.2167 19.5383C65.9567 19.598 65.6798 19.6491 65.3857 19.6917C65.0917 19.7343 64.8424 19.7706 64.6379 19.8004C64.1222 19.8728 63.6918 20.0156 63.3467 20.2286C63.0015 20.4375 62.8289 20.7635 62.8289 21.2066C62.8289 21.6328 62.9844 21.9545 63.2955 22.1718C63.6066 22.3892 64.0029 22.4978 64.4844 22.4978Z" fill="#0F1727"/>
<path d="M76.5473 14.1818V15.9715H74.5082V24H72.1943V15.9715H70.7433V14.1818H72.1943V13.2549C72.1943 12.5944 72.3306 12.0447 72.6034 11.6058C72.8804 11.1669 73.2511 10.8387 73.7156 10.6214C74.1801 10.4041 74.6957 10.2954 75.2625 10.2954C75.663 10.2954 76.0188 10.3274 76.3299 10.3913C76.641 10.4552 76.8711 10.5127 77.0203 10.5639L76.5536 12.3536C76.4599 12.3238 76.3384 12.294 76.1893 12.2642C76.0402 12.2301 75.874 12.213 75.6907 12.213C75.2603 12.213 74.9556 12.3174 74.7767 12.5262C74.5977 12.7308 74.5082 13.0248 74.5082 13.4083V14.1818H76.5473Z" fill="#0F1727"/>
<path d="M82.5169 24.1917C81.5325 24.1917 80.6823 23.985 79.9664 23.5717C79.2548 23.1583 78.7072 22.5745 78.3237 21.8203C77.9401 21.066 77.7484 20.1754 77.7484 19.1484C77.7484 18.1385 77.9401 17.2521 78.3237 16.4893C78.7072 15.7223 79.2463 15.1257 79.9409 14.6995C80.6397 14.2691 81.4579 14.0539 82.3954 14.0539C83.2008 14.0539 83.9444 14.2286 84.6262 14.5781C85.308 14.9233 85.8535 15.4623 86.2626 16.1953C86.6759 16.924 86.8826 17.8636 86.8826 19.0142V19.7237H80.0431C80.0559 20.5632 80.2882 21.2173 80.7399 21.686C81.1958 22.1548 81.7988 22.3892 82.5488 22.3892C83.0474 22.3892 83.4778 22.2826 83.84 22.0696C84.2065 21.8522 84.4686 21.5369 84.6262 21.1235L86.7867 21.3664C86.5822 22.2187 86.1049 22.9027 85.3549 23.4183C84.6092 23.9339 83.6632 24.1917 82.5169 24.1917ZM80.0495 18.164H84.6646C84.6603 17.495 84.4515 16.9431 84.0382 16.5085C83.6291 16.0738 83.0921 15.8565 82.4274 15.8565C81.737 15.8565 81.1767 16.0845 80.7463 16.5404C80.3159 16.9964 80.0836 17.5376 80.0495 18.164Z" fill="#0F1727"/>
<path d="M93.3029 24.1917C92.327 24.1917 91.4875 23.9765 90.7844 23.5461C90.0813 23.1157 89.5401 22.5191 89.1608 21.7563C88.7858 20.9936 88.5983 20.1179 88.5983 19.1292C88.5983 18.1278 88.7901 17.2478 89.1736 16.4893C89.5571 15.7265 90.0983 15.1299 90.7972 14.6995C91.5003 14.2691 92.3313 14.0539 93.2901 14.0539C94.0912 14.0539 94.7986 14.201 95.4122 14.495C96.0259 14.7848 96.5159 15.1938 96.8824 15.7223C97.2489 16.2507 97.4577 16.8707 97.5088 17.5823H95.2972C95.2077 17.1093 94.9946 16.7152 94.658 16.3998C94.3256 16.0802 93.8803 15.9204 93.322 15.9204C92.6104 15.9204 92.0351 16.2017 91.5962 16.7642C91.1615 17.3224 90.9442 18.098 90.9442 19.0909C90.9442 20.0923 91.1594 20.8785 91.5898 21.4495C92.0244 22.0206 92.6019 22.3061 93.322 22.3061C93.8291 22.3061 94.2595 22.1612 94.6132 21.8714C94.9712 21.5816 95.1992 21.1725 95.2972 20.6441H97.5088C97.4534 21.3387 97.2489 21.9524 96.8952 22.485C96.5415 23.0177 96.06 23.4353 95.4506 23.7379C94.8412 24.0404 94.1253 24.1917 93.3029 24.1917Z" fill="#0F1727"/>
<path d="M101.903 10.909V24H99.5889V10.909H101.903Z" fill="#0F1727"/>
<path d="M108.745 24.1917C107.786 24.1917 106.955 23.9808 106.252 23.5589C105.549 23.137 105.003 22.5468 104.616 21.7883C104.232 21.0255 104.04 20.1392 104.04 19.1292C104.04 18.115 104.232 17.2286 104.616 16.4701C105.003 15.7073 105.549 15.115 106.252 14.6931C106.955 14.267 107.786 14.0539 108.745 14.0539C109.704 14.0539 110.535 14.267 111.238 14.6931C111.945 15.115 112.491 15.7073 112.874 16.4701C113.258 17.2286 113.449 18.115 113.449 19.1292C113.449 20.1392 113.258 21.0255 112.874 21.7883C112.491 22.5468 111.945 23.137 111.238 23.5589C110.535 23.9808 109.704 24.1917 108.745 24.1917ZM108.758 22.338C109.282 22.338 109.716 22.1953 110.062 21.9098C110.411 21.6242 110.671 21.2386 110.841 20.7528C111.016 20.2627 111.104 19.7194 111.104 19.1228C111.104 18.522 111.016 17.9787 110.841 17.4929C110.671 17.0028 110.411 16.6129 110.062 16.3231C109.716 16.0333 109.282 15.8885 108.758 15.8885C108.229 15.8885 107.788 16.0333 107.435 16.3231C107.085 16.6129 106.823 17.0028 106.648 17.4929C106.474 17.9787 106.386 18.522 106.386 19.1228C106.386 19.7194 106.474 20.2627 106.648 20.7528C106.823 21.2386 107.085 21.6242 107.435 21.9098C107.788 22.1953 108.229 22.338 108.758 22.338Z" fill="#0F1727"/>
<path d="M121.851 19.8707V14.1818H124.165V24H121.922V22.2549H121.819C121.598 22.8046 121.233 23.2542 120.726 23.6036C120.223 23.9531 119.603 24.1278 118.866 24.1278C117.903 24.1278 117.117 23.8082 116.507 23.169C115.898 22.5255 115.593 21.6136 115.593 20.4332V14.1818H117.907V20.0752C117.907 20.6974 118.078 21.1917 118.419 21.5582C118.76 21.9247 119.207 22.1079 119.761 22.1079C120.102 22.1079 120.432 22.0248 120.752 21.8586C121.071 21.6924 121.333 21.4453 121.538 21.1171C121.747 20.7848 121.851 20.3693 121.851 19.8707Z" fill="#0F1727"/>
<path d="M130.368 24.1725C129.597 24.1725 128.906 23.9744 128.297 23.5781C127.688 23.1818 127.206 22.6065 126.852 21.8522C126.499 21.098 126.322 20.1818 126.322 19.1036C126.322 18.0127 126.501 17.0923 126.859 16.3423C127.221 15.5923 127.709 15.0234 128.323 14.6356C128.936 14.2478 129.62 14.0539 130.374 14.0539C130.954 14.0539 131.427 14.1519 131.793 14.348C132.164 14.5397 132.458 14.772 132.676 15.0447C132.897 15.3132 133.065 15.5667 133.181 15.8054H133.276V10.909H135.597V24H133.321V22.4531H133.181C133.061 22.6917 132.889 22.9453 132.663 23.2137C132.437 23.4779 132.139 23.7038 131.768 23.8913C131.397 24.0788 130.931 24.1725 130.368 24.1725ZM131.014 22.2741C131.751 22.2741 132.32 21.9822 132.72 21.3984C133.121 20.8103 133.321 20.0412 133.321 19.0909C133.321 18.1363 133.123 17.3757 132.727 16.8089C132.33 16.2379 131.759 15.9524 131.014 15.9524C130.242 15.9524 129.661 16.2464 129.269 16.8345C128.877 17.4225 128.681 18.1747 128.681 19.0909C128.681 20.0113 128.879 20.772 129.275 21.3728C129.671 21.9737 130.251 22.2741 131.014 22.2741Z" fill="#0F1727"/>
<g clip-path="url(#clip0)">
<path d="M34 19.9476C34 24.7668 30.0793 28.6875 25.2601 28.6875H6.95766C3.12115 28.6875 0 25.5664 0 21.7298C0 17.9576 3.01757 14.8768 6.76573 14.7748C6.24366 9.97763 10.1718 5.3125 15.4577 5.3125C19.2816 5.3125 22.6115 7.78525 23.7671 11.3349C29.1419 10.4091 34 14.5669 34 19.9476Z" fill="#2E59C9"/>
<path d="M16.9502 15.8122L16.8335 15.4749L16.9502 15.6451V15.8122L19.6001 23.4748H16.9502V15.8122Z" fill="white"/>
<path d="M16.9502 15.8122L17.0669 15.4749L16.9502 15.6451V15.8122L14.3002 23.4748H16.9502V15.8122Z" fill="white"/>
<circle cx="16.95" cy="16.8499" r="2.64997" fill="white"/>
</g>
<defs>
<clipPath id="clip0">
<rect width="34" height="34" fill="white"/>
</clipPath>
</defs>
</svg>
