<svg width="137" height="34" viewBox="0 0 137 34" fill="none" xmlns="http://www.w3.org/2000/svg">
<path d="M56.4055 14.5078C56.3459 13.9496 56.0966 13.5149 55.6577 13.2038C55.2188 12.8928 54.6456 12.7372 53.9382 12.7372C53.1967 12.7372 52.6172 12.8991 52.1996 13.223C51.782 13.5426 51.571 13.9496 51.5668 14.4439C51.5625 14.8061 51.6712 15.1065 51.8928 15.3452C52.1143 15.5795 52.3956 15.767 52.7365 15.9077C53.0817 16.0483 53.4332 16.1612 53.7912 16.2464L55.0185 16.5533C55.6747 16.7067 56.2947 16.9347 56.8786 17.2372C57.4666 17.5355 57.9439 17.9361 58.3104 18.4389C58.6811 18.9375 58.8665 19.5661 58.8665 20.3246C58.8622 21.4794 58.4254 22.4148 57.5561 23.1307C56.6868 23.8423 55.468 24.1982 53.8999 24.1982C52.3743 24.1982 51.1577 23.8466 50.25 23.1435C49.3423 22.4361 48.8651 21.4325 48.8182 20.1328H51.1513C51.1982 20.8189 51.4794 21.3303 51.995 21.6669C52.5107 22.0036 53.1392 22.1719 53.8807 22.1719C54.6563 22.1719 55.2848 22.0014 55.7663 21.6605C56.2479 21.3153 56.4908 20.8636 56.495 20.3054C56.4908 19.7983 56.2734 19.4148 55.843 19.1548C55.4169 18.8906 54.8501 18.669 54.1428 18.4901L52.6534 18.1065C51.5753 17.8295 50.723 17.4098 50.0966 16.8473C49.4744 16.2805 49.1634 15.5284 49.1634 14.5909C49.1634 13.8196 49.3722 13.1442 49.7898 12.5646C50.2074 11.9851 50.7784 11.5355 51.5028 11.2159C52.2315 10.892 53.054 10.7301 53.9702 10.7301C54.8991 10.7301 55.7152 10.892 56.4183 11.2159C57.1214 11.5355 57.6712 11.9808 58.0675 12.5518C58.468 13.1186 58.6747 13.7706 58.6875 14.5078H56.4055ZM63.8837 24.1982C62.9462 24.1982 62.1642 23.9467 61.5378 23.4439C60.9114 22.9411 60.5981 22.2081 60.5981 21.245C60.5981 20.5078 60.775 19.9368 61.1287 19.532C61.4866 19.1229 61.949 18.8267 62.5158 18.6435C63.0868 18.456 63.6898 18.3281 64.3247 18.2599C65.1898 18.1662 65.8098 18.0788 66.1848 17.9979C66.5641 17.9169 66.7537 17.7102 66.7537 17.3778V17.3395C66.7537 16.858 66.6109 16.4851 66.3254 16.2209C66.0399 15.9567 65.6287 15.8246 65.0918 15.8246C64.525 15.8246 64.0754 15.9482 63.743 16.1953C63.4149 16.4425 63.1933 16.7344 63.0783 17.071L60.9177 16.7642C61.1734 15.8693 61.672 15.1939 62.4135 14.7379C63.1592 14.282 64.0477 14.054 65.079 14.054C65.5477 14.054 66.0165 14.1094 66.4852 14.2202C66.954 14.331 67.3822 14.5142 67.77 14.7699C68.1621 15.0256 68.4753 15.3707 68.7097 15.8054C68.9483 16.2401 69.0676 16.7812 69.0676 17.429V24H66.8432V22.6513H66.7665C66.5577 23.0646 66.2168 23.4268 65.7437 23.7379C65.275 24.0447 64.655 24.1982 63.8837 24.1982ZM64.4845 22.4979C65.1834 22.4979 65.7374 22.2976 66.1464 21.897C66.5555 21.4964 66.7601 21.0234 66.7601 20.478V19.321C66.6621 19.402 66.481 19.4744 66.2168 19.5384C65.9568 19.598 65.6798 19.6491 65.3858 19.6918C65.0918 19.7344 64.8425 19.7706 64.6379 19.8004C64.1223 19.8729 63.6919 20.0156 63.3467 20.2287C63.0016 20.4375 62.829 20.7635 62.829 21.2067C62.829 21.6328 62.9845 21.9545 63.2956 22.1719C63.6067 22.3892 64.003 22.4979 64.4845 22.4979ZM76.5473 14.1818V15.9716H74.5083V24H72.1943V15.9716H70.7433V14.1818H72.1943V13.255C72.1943 12.5945 72.3307 12.0447 72.6034 11.6058C72.8804 11.1669 73.2512 10.8388 73.7156 10.6214C74.1801 10.4041 74.6958 10.2955 75.2625 10.2955C75.6631 10.2955 76.0189 10.3274 76.33 10.3913C76.6411 10.4553 76.8712 10.5128 77.0203 10.5639L76.5537 12.3537C76.46 12.3239 76.3385 12.294 76.1894 12.2642C76.0402 12.2301 75.874 12.2131 75.6908 12.2131C75.2604 12.2131 74.9557 12.3175 74.7767 12.5263C74.5977 12.7308 74.5083 13.0249 74.5083 13.4084V14.1818H76.5473ZM82.5169 24.1918C81.5325 24.1918 80.6824 23.9851 79.9665 23.5717C79.2548 23.1584 78.7073 22.5746 78.3237 21.8203C77.9402 21.0661 77.7485 20.1754 77.7485 19.1484C77.7485 18.1385 77.9402 17.2521 78.3237 16.4893C78.7073 15.7223 79.2463 15.1257 79.9409 14.6996C80.6398 14.2692 81.458 14.054 82.3955 14.054C83.2009 14.054 83.9445 14.2287 84.6263 14.5781C85.3081 14.9233 85.8536 15.4624 86.2627 16.1953C86.676 16.924 86.8827 17.8636 86.8827 19.0142V19.7237H80.0432C80.056 20.5632 80.2882 21.2173 80.7399 21.6861C81.1959 22.1548 81.7989 22.3892 82.5489 22.3892C83.0475 22.3892 83.4779 22.2827 83.8401 22.0696C84.2065 21.8523 84.4686 21.5369 84.6263 21.1236L86.7868 21.3665C86.5823 22.2187 86.105 22.9027 85.355 23.4183C84.6092 23.9339 83.6632 24.1918 82.5169 24.1918ZM80.0496 18.1641H84.6646C84.6604 17.495 84.4516 16.9432 84.0382 16.5085C83.6291 16.0739 83.0922 15.8565 82.4274 15.8565C81.7371 15.8565 81.1767 16.0845 80.7463 16.5405C80.3159 16.9964 80.0837 17.5376 80.0496 18.1641ZM93.3029 24.1918C92.3271 24.1918 91.4876 23.9766 90.7845 23.5462C90.0813 23.1158 89.5401 22.5192 89.1609 21.7564C88.7859 20.9936 88.5984 20.1179 88.5984 19.1293C88.5984 18.1278 88.7901 17.2479 89.1737 16.4893C89.5572 15.7266 90.0984 15.13 90.7972 14.6996C91.5004 14.2692 92.3313 14.054 93.2901 14.054C94.0913 14.054 94.7987 14.201 95.4123 14.495C96.0259 14.7848 96.516 15.1939 96.8825 15.7223C97.2489 16.2507 97.4577 16.8707 97.5089 17.5824H95.2972C95.2077 17.1094 94.9947 16.7152 94.658 16.3999C94.3256 16.0803 93.8803 15.9205 93.3221 15.9205C92.6104 15.9205 92.0352 16.2017 91.5962 16.7642C91.1616 17.3224 90.9443 18.098 90.9443 19.0909C90.9443 20.0923 91.1595 20.8786 91.5899 21.4496C92.0245 22.0206 92.6019 22.3061 93.3221 22.3061C93.8292 22.3061 94.2596 22.1612 94.6133 21.8714C94.9712 21.5817 95.1992 21.1726 95.2972 20.6442H97.5089C97.4535 21.3388 97.2489 21.9524 96.8952 22.4851C96.5416 23.0178 96.06 23.4354 95.4506 23.7379C94.8413 24.0405 94.1254 24.1918 93.3029 24.1918ZM101.903 10.9091V24H99.5889V10.9091H101.903ZM108.745 24.1918C107.786 24.1918 106.955 23.9808 106.252 23.5589C105.549 23.1371 105.003 22.5469 104.616 21.7884C104.232 21.0256 104.04 20.1392 104.04 19.1293C104.04 18.1151 104.232 17.2287 104.616 16.4702C105.003 15.7074 105.549 15.1151 106.252 14.6932C106.955 14.267 107.786 14.054 108.745 14.054C109.704 14.054 110.535 14.267 111.238 14.6932C111.945 15.1151 112.491 15.7074 112.874 16.4702C113.258 17.2287 113.449 18.1151 113.449 19.1293C113.449 20.1392 113.258 21.0256 112.874 21.7884C112.491 22.5469 111.945 23.1371 111.238 23.5589C110.535 23.9808 109.704 24.1918 108.745 24.1918ZM108.758 22.3381C109.282 22.3381 109.717 22.1953 110.062 21.9098C110.411 21.6243 110.671 21.2386 110.842 20.7528C111.016 20.2628 111.104 19.7195 111.104 19.1229C111.104 18.522 111.016 17.9787 110.842 17.4929C110.671 17.0028 110.411 16.6129 110.062 16.3232C109.717 16.0334 109.282 15.8885 108.758 15.8885C108.229 15.8885 107.788 16.0334 107.435 16.3232C107.085 16.6129 106.823 17.0028 106.648 17.4929C106.474 17.9787 106.386 18.522 106.386 19.1229C106.386 19.7195 106.474 20.2628 106.648 20.7528C106.823 21.2386 107.085 21.6243 107.435 21.9098C107.788 22.1953 108.229 22.3381 108.758 22.3381ZM121.851 19.8707V14.1818H124.165V24H121.922V22.255H121.819C121.598 22.8047 121.233 23.2543 120.726 23.6037C120.223 23.9531 119.603 24.1278 118.866 24.1278C117.903 24.1278 117.117 23.8082 116.508 23.169C115.898 22.5256 115.593 21.6136 115.593 20.4332V14.1818H117.907V20.0753C117.907 20.6974 118.078 21.1918 118.419 21.5582C118.76 21.9247 119.207 22.108 119.761 22.108C120.102 22.108 120.432 22.0249 120.752 21.8587C121.071 21.6925 121.334 21.4453 121.538 21.1172C121.747 20.7848 121.851 20.3693 121.851 19.8707ZM130.368 24.1726C129.597 24.1726 128.906 23.9744 128.297 23.5781C127.688 23.1818 127.206 22.6065 126.852 21.8523C126.499 21.098 126.322 20.1818 126.322 19.1037C126.322 18.0128 126.501 17.0923 126.859 16.3423C127.221 15.5923 127.709 15.0234 128.323 14.6357C128.936 14.2479 129.62 14.054 130.374 14.054C130.954 14.054 131.427 14.152 131.794 14.348C132.164 14.5398 132.458 14.772 132.676 15.0447C132.897 15.3132 133.066 15.5668 133.181 15.8054H133.276V10.9091H135.597V24H133.321V22.4531H133.181C133.061 22.6918 132.889 22.9453 132.663 23.2138C132.437 23.478 132.139 23.7038 131.768 23.8913C131.397 24.0788 130.931 24.1726 130.368 24.1726ZM131.014 22.2741C131.751 22.2741 132.32 21.9822 132.72 21.3984C133.121 20.8104 133.321 20.0412 133.321 19.0909C133.321 18.1364 133.123 17.3757 132.727 16.8089C132.33 16.2379 131.759 15.9524 131.014 15.9524C130.242 15.9524 129.661 16.2464 129.269 16.8345C128.877 17.4226 128.681 18.1747 128.681 19.0909C128.681 20.0114 128.879 20.772 129.275 21.3729C129.671 21.9737 130.251 22.2741 131.014 22.2741Z" fill="white"/>
<g clip-path="url(#clip0)">
<path d="M34 19.9476C34 24.7668 30.0793 28.6875 25.2601 28.6875H6.95766C3.12115 28.6875 0 25.5664 0 21.7298C0 17.9576 3.01757 14.8768 6.76573 14.7748C6.24366 9.97763 10.1718 5.3125 15.4577 5.3125C19.2816 5.3125 22.6115 7.78525 23.7671 11.3349C29.1419 10.4091 34 14.5669 34 19.9476Z" fill="#648FFF"/>
<path d="M16.9502 15.8122L16.8335 15.4749L16.9502 15.6451V15.8122L19.6001 23.4748H16.9502V15.8122Z" fill="#1E419B"/>
<path d="M16.9502 15.8122L17.0669 15.4749L16.9502 15.6451V15.8122L14.3002 23.4748H16.9502V15.8122Z" fill="#1E419B"/>
<circle cx="16.95" cy="16.8499" r="2.64997" fill="#1E419B"/>
</g>
<defs>
<clipPath id="clip0">
<rect width="34" height="34" fill="white"/>
</clipPath>
</defs>
</svg>
