<svg width="225" height="34" viewBox="0 0 225 34" fill="none" xmlns="http://www.w3.org/2000/svg">
<path d="M56.4055 14.5078C56.3459 13.9495 56.0966 13.5149 55.6577 13.2038C55.2187 12.8927 54.6456 12.7372 53.9382 12.7372C53.1967 12.7372 52.6172 12.8991 52.1996 13.223C51.782 13.5426 51.571 13.9495 51.5668 14.4438C51.5625 14.8061 51.6712 15.1065 51.8928 15.3451C52.1143 15.5795 52.3956 15.767 52.7365 15.9076C53.0817 16.0483 53.4332 16.1612 53.7912 16.2464L55.0185 16.5532C55.6747 16.7066 56.2947 16.9346 56.8785 17.2372C57.4666 17.5355 57.9439 17.936 58.3104 18.4389C58.6811 18.9375 58.8665 19.566 58.8665 20.3245C58.8622 21.4794 58.4254 22.4147 57.5561 23.1306C56.6868 23.8423 55.468 24.1981 53.8999 24.1981C52.3743 24.1981 51.1577 23.8465 50.25 23.1434C49.3423 22.436 48.8651 21.4325 48.8182 20.1328H51.1513C51.1981 20.8188 51.4794 21.3302 51.995 21.6669C52.5106 22.0035 53.1392 22.1718 53.8807 22.1718C54.6562 22.1718 55.2848 22.0014 55.7663 21.6605C56.2479 21.3153 56.4908 20.8636 56.495 20.3054C56.4908 19.7983 56.2734 19.4147 55.843 19.1548C55.4169 18.8906 54.8501 18.669 54.1428 18.49L52.6534 18.1065C51.5753 17.8295 50.723 17.4098 50.0966 16.8473C49.4744 16.2805 49.1633 15.5284 49.1633 14.5909C49.1633 13.8196 49.3722 13.1441 49.7898 12.5646C50.2074 11.985 50.7784 11.5355 51.5028 11.2159C52.2315 10.892 53.054 10.7301 53.9702 10.7301C54.8991 10.7301 55.7152 10.892 56.4183 11.2159C57.1214 11.5355 57.6712 11.9808 58.0675 12.5518C58.468 13.1186 58.6747 13.7706 58.6875 14.5078H56.4055Z" fill="#0F1727"/>
<path d="M63.8837 24.1981C62.9462 24.1981 62.1642 23.9467 61.5378 23.4438C60.9114 22.941 60.5981 22.2081 60.5981 21.245C60.5981 20.5078 60.775 19.9367 61.1287 19.5319C61.4866 19.1228 61.949 18.8267 62.5158 18.6434C63.0868 18.4559 63.6898 18.3281 64.3247 18.2599C65.1898 18.1661 65.8098 18.0788 66.1848 17.9978C66.5641 17.9169 66.7537 17.7102 66.7537 17.3778V17.3394C66.7537 16.8579 66.6109 16.485 66.3254 16.2208C66.0399 15.9566 65.6287 15.8245 65.0917 15.8245C64.525 15.8245 64.0754 15.9481 63.743 16.1953C63.4149 16.4424 63.1933 16.7343 63.0783 17.071L60.9177 16.7642C61.1734 15.8693 61.672 15.1938 62.4135 14.7379C63.1592 14.2819 64.0477 14.0539 65.079 14.0539C65.5477 14.0539 66.0165 14.1093 66.4852 14.2201C66.954 14.3309 67.3822 14.5142 67.77 14.7698C68.1621 15.0255 68.4753 15.3707 68.7096 15.8054C68.9483 16.24 69.0676 16.7812 69.0676 17.4289V24H66.8432V22.6512H66.7665C66.5577 23.0646 66.2167 23.4268 65.7437 23.7379C65.275 24.0447 64.655 24.1981 63.8837 24.1981ZM64.4845 22.4978C65.1834 22.4978 65.7373 22.2975 66.1464 21.897C66.5555 21.4964 66.7601 21.0234 66.7601 20.4779V19.321C66.6621 19.4019 66.481 19.4744 66.2167 19.5383C65.9568 19.598 65.6798 19.6491 65.3858 19.6917C65.0917 19.7343 64.8425 19.7706 64.6379 19.8004C64.1223 19.8728 63.6919 20.0156 63.3467 20.2286C63.0016 20.4375 62.829 20.7635 62.829 21.2066C62.829 21.6328 62.9845 21.9545 63.2956 22.1718C63.6067 22.3892 64.003 22.4978 64.4845 22.4978Z" fill="#0F1727"/>
<path d="M76.5473 14.1818V15.9715H74.5083V24H72.1943V15.9715H70.7433V14.1818H72.1943V13.2549C72.1943 12.5944 72.3307 12.0447 72.6034 11.6058C72.8804 11.1669 73.2512 10.8387 73.7156 10.6214C74.1801 10.4041 74.6958 10.2954 75.2625 10.2954C75.6631 10.2954 76.0189 10.3274 76.33 10.3913C76.6411 10.4552 76.8712 10.5127 77.0203 10.5639L76.5537 12.3536C76.46 12.3238 76.3385 12.294 76.1894 12.2642C76.0402 12.2301 75.874 12.213 75.6908 12.213C75.2604 12.213 74.9557 12.3174 74.7767 12.5262C74.5977 12.7308 74.5083 13.0248 74.5083 13.4083V14.1818H76.5473Z" fill="#0F1727"/>
<path d="M82.5169 24.1917C81.5325 24.1917 80.6824 23.985 79.9665 23.5717C79.2548 23.1583 78.7073 22.5745 78.3237 21.8203C77.9402 21.066 77.7484 20.1754 77.7484 19.1484C77.7484 18.1385 77.9402 17.2521 78.3237 16.4893C78.7073 15.7223 79.2463 15.1257 79.9409 14.6995C80.6398 14.2691 81.458 14.0539 82.3955 14.0539C83.2009 14.0539 83.9445 14.2286 84.6263 14.5781C85.3081 14.9233 85.8536 15.4623 86.2627 16.1953C86.676 16.924 86.8827 17.8636 86.8827 19.0142V19.7237H80.0432C80.056 20.5632 80.2882 21.2173 80.7399 21.686C81.1959 22.1548 81.7989 22.3892 82.5489 22.3892C83.0475 22.3892 83.4779 22.2826 83.8401 22.0696C84.2065 21.8522 84.4686 21.5369 84.6263 21.1235L86.7868 21.3664C86.5823 22.2187 86.105 22.9027 85.355 23.4183C84.6092 23.9339 83.6632 24.1917 82.5169 24.1917ZM80.0496 18.164H84.6646C84.6604 17.495 84.4516 16.9431 84.0382 16.5085C83.6291 16.0738 83.0922 15.8565 82.4274 15.8565C81.7371 15.8565 81.1767 16.0845 80.7463 16.5404C80.3159 16.9964 80.0837 17.5376 80.0496 18.164Z" fill="#0F1727"/>
<path d="M93.3029 24.1917C92.3271 24.1917 91.4876 23.9765 90.7845 23.5461C90.0813 23.1157 89.5401 22.5191 89.1609 21.7563C88.7859 20.9936 88.5984 20.1179 88.5984 19.1292C88.5984 18.1278 88.7901 17.2478 89.1737 16.4893C89.5572 15.7265 90.0984 15.1299 90.7972 14.6995C91.5004 14.2691 92.3313 14.0539 93.2901 14.0539C94.0913 14.0539 94.7987 14.201 95.4123 14.495C96.0259 14.7848 96.516 15.1938 96.8825 15.7223C97.2489 16.2507 97.4577 16.8707 97.5089 17.5823H95.2972C95.2077 17.1093 94.9947 16.7152 94.658 16.3998C94.3256 16.0802 93.8803 15.9204 93.3221 15.9204C92.6104 15.9204 92.0352 16.2017 91.5962 16.7642C91.1616 17.3224 90.9443 18.098 90.9443 19.0909C90.9443 20.0923 91.1595 20.8785 91.5898 21.4495C92.0245 22.0206 92.6019 22.3061 93.3221 22.3061C93.8292 22.3061 94.2596 22.1612 94.6133 21.8714C94.9712 21.5816 95.1992 21.1725 95.2972 20.6441H97.5089C97.4535 21.3387 97.2489 21.9524 96.8952 22.485C96.5416 23.0177 96.06 23.4353 95.4506 23.7379C94.8413 24.0404 94.1254 24.1917 93.3029 24.1917Z" fill="#0F1727"/>
<path d="M101.903 10.909V24H99.5889V10.909H101.903Z" fill="#0F1727"/>
<path d="M108.745 24.1917C107.786 24.1917 106.955 23.9808 106.252 23.5589C105.549 23.137 105.003 22.5468 104.616 21.7883C104.232 21.0255 104.04 20.1392 104.04 19.1292C104.04 18.115 104.232 17.2286 104.616 16.4701C105.003 15.7073 105.549 15.115 106.252 14.6931C106.955 14.267 107.786 14.0539 108.745 14.0539C109.704 14.0539 110.535 14.267 111.238 14.6931C111.945 15.115 112.491 15.7073 112.874 16.4701C113.258 17.2286 113.449 18.115 113.449 19.1292C113.449 20.1392 113.258 21.0255 112.874 21.7883C112.491 22.5468 111.945 23.137 111.238 23.5589C110.535 23.9808 109.704 24.1917 108.745 24.1917ZM108.758 22.338C109.282 22.338 109.717 22.1953 110.062 21.9098C110.411 21.6242 110.671 21.2386 110.842 20.7528C111.016 20.2627 111.104 19.7194 111.104 19.1228C111.104 18.522 111.016 17.9787 110.842 17.4929C110.671 17.0028 110.411 16.6129 110.062 16.3231C109.717 16.0333 109.282 15.8885 108.758 15.8885C108.229 15.8885 107.788 16.0333 107.435 16.3231C107.085 16.6129 106.823 17.0028 106.648 17.4929C106.474 17.9787 106.386 18.522 106.386 19.1228C106.386 19.7194 106.474 20.2627 106.648 20.7528C106.823 21.2386 107.085 21.6242 107.435 21.9098C107.788 22.1953 108.229 22.338 108.758 22.338Z" fill="#0F1727"/>
<path d="M121.851 19.8707V14.1818H124.165V24H121.922V22.2549H121.819C121.598 22.8046 121.233 23.2542 120.726 23.6036C120.223 23.9531 119.603 24.1278 118.866 24.1278C117.903 24.1278 117.117 23.8082 116.508 23.169C115.898 22.5255 115.593 21.6136 115.593 20.4332V14.1818H117.907V20.0752C117.907 20.6974 118.078 21.1917 118.419 21.5582C118.76 21.9247 119.207 22.1079 119.761 22.1079C120.102 22.1079 120.432 22.0248 120.752 21.8586C121.071 21.6924 121.334 21.4453 121.538 21.1171C121.747 20.7848 121.851 20.3693 121.851 19.8707Z" fill="#0F1727"/>
<path d="M130.368 24.1725C129.597 24.1725 128.906 23.9744 128.297 23.5781C127.688 23.1818 127.206 22.6065 126.852 21.8522C126.499 21.098 126.322 20.1818 126.322 19.1036C126.322 18.0127 126.501 17.0923 126.859 16.3423C127.221 15.5923 127.709 15.0234 128.323 14.6356C128.936 14.2478 129.62 14.0539 130.374 14.0539C130.954 14.0539 131.427 14.1519 131.794 14.348C132.164 14.5397 132.458 14.772 132.676 15.0447C132.897 15.3132 133.066 15.5667 133.181 15.8054H133.276V10.909H135.597V24H133.321V22.4531H133.181C133.061 22.6917 132.889 22.9453 132.663 23.2137C132.437 23.4779 132.139 23.7038 131.768 23.8913C131.397 24.0788 130.931 24.1725 130.368 24.1725ZM131.014 22.2741C131.751 22.2741 132.32 21.9822 132.72 21.3984C133.121 20.8103 133.321 20.0412 133.321 19.0909C133.321 18.1363 133.123 17.3757 132.727 16.8089C132.33 16.2379 131.759 15.9524 131.014 15.9524C130.242 15.9524 129.661 16.2464 129.269 16.8345C128.877 17.4225 128.681 18.1747 128.681 19.0909C128.681 20.0113 128.879 20.772 129.275 21.3728C129.671 21.9737 130.251 22.2741 131.014 22.2741Z" fill="#0F1727"/>
<g clip-path="url(#clip0)">
<path d="M34 19.9476C34 24.7668 30.0793 28.6875 25.2601 28.6875H6.95766C3.12115 28.6875 0 25.5664 0 21.7298C0 17.9576 3.01757 14.8768 6.76573 14.7748C6.24366 9.97763 10.1718 5.3125 15.4577 5.3125C19.2816 5.3125 22.6115 7.78525 23.7671 11.3349C29.1419 10.4091 34 14.5669 34 19.9476Z" fill="#2E59C9"/>
<path d="M16.9502 15.8122L16.8335 15.4749L16.9502 15.6451V15.8122L19.6001 23.4748H16.9502V15.8122Z" fill="white"/>
<path d="M16.9502 15.8122L17.0669 15.4749L16.9502 15.6451V15.8122L14.3002 23.4748H16.9502V15.8122Z" fill="white"/>
<circle cx="16.95" cy="16.8499" r="2.64997" fill="white"/>
</g>
<path d="M158.409 23.5V11.8636H162.477C163.288 11.8636 163.956 12.0038 164.483 12.2841C165.009 12.5606 165.402 12.9337 165.659 13.4034C165.917 13.8693 166.045 14.3864 166.045 14.9545C166.045 15.4545 165.956 15.8674 165.778 16.1932C165.604 16.5189 165.373 16.7765 165.085 16.9659C164.801 17.1553 164.492 17.2955 164.159 17.3864V17.5C164.515 17.5227 164.873 17.6477 165.233 17.875C165.593 18.1023 165.894 18.428 166.136 18.8523C166.379 19.2765 166.5 19.7955 166.5 20.4091C166.5 20.9924 166.367 21.517 166.102 21.983C165.837 22.4489 165.419 22.8182 164.847 23.0909C164.275 23.3636 163.53 23.5 162.614 23.5H158.409ZM159.818 22.25H162.614C163.534 22.25 164.188 22.072 164.574 21.7159C164.964 21.3561 165.159 20.9205 165.159 20.4091C165.159 20.0152 165.059 19.6515 164.858 19.3182C164.657 18.9811 164.371 18.7121 164 18.5114C163.629 18.3068 163.189 18.2045 162.682 18.2045H159.818V22.25ZM159.818 16.9773H162.432C163.068 16.9773 163.606 16.7936 164.045 16.4261C164.485 16.0587 164.705 15.5682 164.705 14.9545C164.705 14.4432 164.527 14.0095 164.17 13.6534C163.814 13.2936 163.25 13.1136 162.477 13.1136H159.818V16.9773ZM174.134 19.9318V14.7727H175.474V23.5H174.134V22.0227H174.043C173.838 22.4659 173.52 22.8428 173.088 23.1534C172.656 23.4602 172.111 23.6136 171.452 23.6136C170.634 23.6136 169.959 23.3428 169.429 22.8011C168.899 22.2595 168.634 21.4318 168.634 20.3182V14.7727H169.974V20.2273C169.974 20.8636 170.152 21.3712 170.509 21.75C170.868 22.1288 171.327 22.3182 171.884 22.3182C172.217 22.3182 172.556 22.233 172.901 22.0625C173.249 21.892 173.541 21.6307 173.776 21.2784C174.014 20.9261 174.134 20.4773 174.134 19.9318ZM184.112 16.7273L182.908 17.0682C182.79 16.7652 182.593 16.4811 182.317 16.2159C182.04 15.9508 181.608 15.8182 181.021 15.8182C180.487 15.8182 180.042 15.9413 179.686 16.1875C179.334 16.4299 179.158 16.7386 179.158 17.1136C179.158 17.447 179.279 17.7102 179.521 17.9034C179.764 18.0966 180.143 18.2576 180.658 18.3864L181.953 18.7045C183.499 19.0833 184.271 19.8712 184.271 21.0682C184.271 21.5682 184.127 22.0152 183.839 22.4091C183.555 22.803 183.158 23.1136 182.646 23.3409C182.135 23.5682 181.54 23.6818 180.862 23.6818C179.972 23.6818 179.235 23.4886 178.652 23.1023C178.069 22.7159 177.699 22.1515 177.544 21.4091L178.817 21.0909C179.055 22.0303 179.73 22.5 180.839 22.5C181.464 22.5 181.961 22.3674 182.328 22.1023C182.699 21.8333 182.885 21.5114 182.885 21.1364C182.885 20.5189 182.453 20.1098 181.589 19.9091L180.135 19.5682C179.336 19.3788 178.749 19.0852 178.374 18.6875C178.002 18.286 177.817 17.7841 177.817 17.1818C177.817 16.6894 177.955 16.2538 178.232 15.875C178.512 15.4962 178.893 15.1989 179.374 14.983C179.858 14.767 180.408 14.6591 181.021 14.6591C181.885 14.6591 182.563 14.8485 183.055 15.2273C183.552 15.6061 183.904 16.1061 184.112 16.7273ZM186.29 23.5V14.7727H187.631V23.5H186.29ZM186.972 13.3182C186.71 13.3182 186.485 13.2292 186.295 13.0511C186.11 12.8731 186.017 12.6591 186.017 12.4091C186.017 12.1591 186.11 11.9451 186.295 11.767C186.485 11.589 186.71 11.5 186.972 11.5C187.233 11.5 187.456 11.589 187.642 11.767C187.831 11.9451 187.926 12.1591 187.926 12.4091C187.926 12.6591 187.831 12.8731 187.642 13.0511C187.456 13.2292 187.233 13.3182 186.972 13.3182ZM191.428 18.25V23.5H190.087V14.7727H191.382V16.1364H191.496C191.7 15.6932 192.011 15.3371 192.428 15.0682C192.844 14.7955 193.382 14.6591 194.041 14.6591C194.924 14.6591 195.636 14.9299 196.178 15.4716C196.723 16.0133 196.996 16.8409 196.996 17.9545V23.5H195.655V18.0455C195.655 17.3598 195.477 16.8258 195.121 16.4432C194.765 16.0568 194.276 15.8636 193.655 15.8636C193.015 15.8636 192.482 16.072 192.058 16.4886C191.638 16.9015 191.428 17.4886 191.428 18.25ZM203.105 23.6818C202.264 23.6818 201.539 23.4962 200.929 23.125C200.323 22.75 199.855 22.2273 199.526 21.5568C199.2 20.8826 199.037 20.0985 199.037 19.2045C199.037 18.3106 199.2 17.5227 199.526 16.8409C199.855 16.1553 200.313 15.6212 200.901 15.2386C201.491 14.8523 202.181 14.6591 202.969 14.6591C203.423 14.6591 203.872 14.7348 204.315 14.8864C204.759 15.0379 205.162 15.2841 205.526 15.625C205.889 15.9621 206.179 16.4091 206.395 16.9659C206.611 17.5227 206.719 18.2083 206.719 19.0227V19.5909H200.384C200.414 20.5227 200.677 21.2367 201.173 21.733C201.673 22.2292 202.317 22.4773 203.105 22.4773C203.632 22.4773 204.084 22.3636 204.463 22.1364C204.842 21.9091 205.116 21.5682 205.287 21.1136L206.582 21.4773C206.378 22.1364 205.969 22.6686 205.355 23.0739C204.741 23.4792 203.991 23.6818 203.105 23.6818ZM200.384 18.4318H205.355C205.355 17.6932 205.139 17.0814 204.707 16.5966C204.276 16.108 203.696 15.8636 202.969 15.8636C202.457 15.8636 202.014 15.983 201.639 16.2216C201.264 16.4602 200.969 16.7765 200.753 17.1705C200.537 17.5606 200.414 17.9811 200.384 18.4318ZM214.94 16.7273L213.736 17.0682C213.618 16.7652 213.421 16.4811 213.145 16.2159C212.868 15.9508 212.437 15.8182 211.849 15.8182C211.315 15.8182 210.87 15.9413 210.514 16.1875C210.162 16.4299 209.986 16.7386 209.986 17.1136C209.986 17.447 210.107 17.7102 210.349 17.9034C210.592 18.0966 210.971 18.2576 211.486 18.3864L212.781 18.7045C214.327 19.0833 215.099 19.8712 215.099 21.0682C215.099 21.5682 214.955 22.0152 214.668 22.4091C214.384 22.803 213.986 23.1136 213.474 23.3409C212.963 23.5682 212.368 23.6818 211.69 23.6818C210.8 23.6818 210.063 23.4886 209.48 23.1023C208.897 22.7159 208.527 22.1515 208.372 21.4091L209.645 21.0909C209.884 22.0303 210.558 22.5 211.668 22.5C212.293 22.5 212.789 22.3674 213.156 22.1023C213.527 21.8333 213.713 21.5114 213.713 21.1364C213.713 20.5189 213.281 20.1098 212.418 19.9091L210.963 19.5682C210.164 19.3788 209.577 19.0852 209.202 18.6875C208.83 18.286 208.645 17.7841 208.645 17.1818C208.645 16.6894 208.783 16.2538 209.06 15.875C209.34 15.4962 209.721 15.1989 210.202 14.983C210.687 14.767 211.236 14.6591 211.849 14.6591C212.713 14.6591 213.391 14.8485 213.884 15.2273C214.38 15.6061 214.732 16.1061 214.94 16.7273ZM223.3 16.7273L222.095 17.0682C221.978 16.7652 221.781 16.4811 221.504 16.2159C221.228 15.9508 220.796 15.8182 220.209 15.8182C219.675 15.8182 219.23 15.9413 218.874 16.1875C218.521 16.4299 218.345 16.7386 218.345 17.1136C218.345 17.447 218.466 17.7102 218.709 17.9034C218.951 18.0966 219.33 18.2576 219.845 18.3864L221.141 18.7045C222.686 19.0833 223.459 19.8712 223.459 21.0682C223.459 21.5682 223.315 22.0152 223.027 22.4091C222.743 22.803 222.345 23.1136 221.834 23.3409C221.322 23.5682 220.728 23.6818 220.05 23.6818C219.16 23.6818 218.423 23.4886 217.839 23.1023C217.256 22.7159 216.887 22.1515 216.732 21.4091L218.004 21.0909C218.243 22.0303 218.917 22.5 220.027 22.5C220.652 22.5 221.148 22.3674 221.516 22.1023C221.887 21.8333 222.072 21.5114 222.072 21.1364C222.072 20.5189 221.641 20.1098 220.777 19.9091L219.322 19.5682C218.523 19.3788 217.936 19.0852 217.561 18.6875C217.19 18.286 217.004 17.7841 217.004 17.1818C217.004 16.6894 217.143 16.2538 217.419 15.875C217.699 15.4962 218.08 15.1989 218.561 14.983C219.046 14.767 219.595 14.6591 220.209 14.6591C221.072 14.6591 221.75 14.8485 222.243 15.2273C222.739 15.6061 223.091 16.1061 223.3 16.7273Z" fill="#4D5D74"/>
<defs>
<clipPath id="clip0">
<rect width="34" height="34" fill="white"/>
</clipPath>
</defs>
</svg>
