<svg width="148" height="131" viewBox="0 0 148 131" fill="none" xmlns="http://www.w3.org/2000/svg">
<path d="M50.4791 29.6606C50.4791 24.7324 46.0972 20.7367 40.6925 20.7367H16.2258C10.8211 20.7367 6.43909 24.7324 6.43909 29.6606V105.514C6.43909 111.674 11.9172 116.669 18.6724 116.669H111.646C118.401 116.669 123.879 111.674 123.879 105.514V49.444C123.879 43.2842 118.401 38.2891 111.646 38.2891H57.8192C53.765 38.2891 50.4791 33.3574 50.4791 29.6606Z" fill="#72B1EC"/>
<path d="M85.339 4.14024C83.3434 3.55635 81.2406 4.68499 80.6661 6.64835L66.0438 56.6246C65.4694 58.588 66.6322 60.6721 68.6278 61.256L104.912 71.8723C106.908 72.4562 109.011 71.3276 109.585 69.3642L121.538 28.5106L112.351 12.0435L85.339 4.14024Z" fill="#F7F9FE"/>
<path d="M81.146 6.78875C81.6408 5.09778 83.4606 4.1116 85.1986 4.62012L112.014 12.4659L121 28.5712L109.105 69.2238C108.611 70.9148 106.791 71.9009 105.053 71.3924L68.7682 60.7761C67.0302 60.2676 66.029 58.456 66.5237 56.765L81.146 6.78875Z" stroke="#D9E1E9" stroke-opacity="0.8"/>
<path fill-rule="evenodd" clip-rule="evenodd" d="M102.674 32.4641L102.674 32.4649L106.917 39.5849L106.917 39.585L106.917 39.5852L106.918 39.5874L106.915 39.5865L91.7623 49.9398L84.5794 33.0493L84.5841 33.0507L91.9909 29.3386L91.9909 29.3384L102.674 32.4641Z" fill="#FFA200"/>
<path d="M111.863 25.6795L121.538 28.5105L112.351 12.0435L109.566 21.5628C109.055 23.308 110.089 25.1605 111.863 25.6795Z" fill="#E1E5EF"/>
<path d="M23.2568 3.85858C21.1009 3.99752 19.4506 5.87517 19.5895 8.03112L23.1263 62.9099C23.2652 65.0659 25.1429 66.7162 27.2988 66.5772L66.498 64.051C68.6539 63.912 70.3042 62.0344 70.1653 59.8784L67.2741 15.0172L52.4384 1.97793L23.2568 3.85858Z" fill="#F4F8FD"/>
<path d="M20.0885 7.99896C19.9673 6.11858 21.4086 4.47873 23.289 4.35755L52.2639 2.49021L66.7885 15.256L69.6663 59.9106C69.7875 61.791 68.3462 63.4308 66.4658 63.552L27.2667 66.0782C25.3863 66.1994 23.7464 64.7581 23.6253 62.8778L20.0885 7.99896Z" stroke="#D9E1E9" stroke-opacity="0.8"/>
<rect x="32.0084" y="24.2876" width="24.4412" height="24.4412" rx="2" transform="rotate(-3.68742 32.0084 24.2876)" fill="#128E52"/>
<path d="M42.0858 30.5563L44.8661 34.5705L44.9552 34.5648L47.2084 30.2262L49.5637 30.0744L46.4177 36.0025L50.3543 41.4742L47.96 41.6285L45.1536 37.6439L45.0645 37.6496L42.7928 41.9615L40.4097 42.1151L43.6448 36.1812L39.7193 30.7088L42.0858 30.5563Z" fill="white"/>
<path d="M56.8211 15.6908L67.2742 15.0172L52.4385 1.97791L53.1121 12.431C53.2356 14.3474 54.9047 15.8143 56.8211 15.6908Z" fill="#E1E5EF"/>
<path opacity="0.05" d="M18.1463 35.9397H112.047C118.719 35.9397 124.129 40.9353 124.129 47.0956V105.106C124.129 111.267 118.719 116.262 112.047 116.262H18.1463C11.4747 116.262 6.06445 111.267 6.06445 105.106V47.0956C6.06445 40.9353 11.4747 35.9397 18.1463 35.9397Z" fill="#353E4F"/>
<path d="M18.4571 38.1248H111.861C118.498 38.1248 123.879 43.13 123.879 49.3022V105.489C123.879 111.661 118.498 116.667 111.861 116.667H18.4571C11.8207 116.667 6.43909 111.661 6.43909 105.489V49.3022C6.43909 43.13 11.8207 38.1248 18.4571 38.1248Z" fill="#8EC7FC"/>
<path d="M108.742 84.4109C108.742 80.8276 110.205 77.391 112.809 74.8572C115.414 72.3233 118.946 70.8999 122.629 70.8999C126.312 70.8999 129.844 72.3233 132.449 74.8572C135.053 77.391 136.516 80.8276 136.516 84.4109V93.0588H140.404V84.4109C140.404 79.8245 138.531 75.4259 135.197 72.1828C131.864 68.9397 127.343 67.1177 122.629 67.1177C117.915 67.1177 113.394 68.9397 110.061 72.1828C106.727 75.4259 104.854 79.8245 104.854 84.4109V93.0588H108.742V84.4109Z" fill="#D8E0ED"/>
<path d="M99.129 91.6373H146.129C146.405 91.6373 146.629 91.8612 146.629 92.1373V129.529C146.629 129.806 146.405 130.029 146.129 130.029H99.129C98.8529 130.029 98.629 129.806 98.629 129.529V92.1373C98.629 91.8612 98.8529 91.6373 99.129 91.6373Z" fill="#EAEEF4" stroke="#E1E5EF"/>
<path opacity="0.9" d="M147.129 99.7843H98.129V122.843H147.129V99.7843Z" fill="#2E59C9"/>
<path opacity="0.26" d="M125.992 106.589C125.993 106.106 125.859 105.631 125.602 105.204C125.346 104.777 124.974 104.411 124.52 104.14C124.066 103.868 123.544 103.698 122.998 103.645C122.452 103.592 121.9 103.658 121.39 103.836C120.879 104.014 120.426 104.299 120.07 104.666C119.714 105.034 119.465 105.473 119.346 105.944C119.227 106.416 119.241 106.906 119.387 107.371C119.533 107.837 119.806 108.264 120.183 108.615V114.927C120.183 115.497 120.441 116.045 120.899 116.448C121.358 116.852 121.98 117.078 122.629 117.078C123.278 117.078 123.9 116.852 124.359 116.448C124.818 116.045 125.075 115.497 125.075 114.927V108.615C125.664 108.068 125.992 107.343 125.992 106.589Z" fill="black"/>
</svg>
