<svg width="200" height="80" viewBox="0 0 200 80" fill="none" xmlns="http://www.w3.org/2000/svg">
<g clip-path="url(#clip0)">
<path d="M78.3886 48.6232L79.8858 45.1837C81.6077 46.3885 83.6714 47.0238 85.7811 46.9987C87.3523 46.9987 88.3432 46.4014 88.3432 45.4934C88.3189 42.9619 78.9398 44.9442 78.8668 38.5905C78.8425 35.3655 81.7433 32.8821 85.8532 32.8821C88.2189 32.7966 90.5471 33.485 92.4765 34.8404L91.0729 38.3538C89.4468 37.2947 87.5564 36.6996 85.6099 36.6341C84.3288 36.6341 83.4829 37.2313 83.4829 37.996C83.5072 40.4803 92.9593 39.1184 93.0557 45.1855C93.0557 48.4817 90.2269 50.7987 86.1657 50.7987C83.4052 50.8945 80.6834 50.1345 78.3821 48.625" fill="black"/>
<path d="M135.899 43.941C135.428 44.7636 134.696 45.4092 133.815 45.777C132.935 46.1447 131.956 46.214 131.031 45.9739C130.106 45.7337 129.288 45.1978 128.704 44.4497C128.12 43.7017 127.804 42.7836 127.804 41.839C127.804 40.8944 128.12 39.9763 128.704 39.2283C129.288 38.4802 130.106 37.9443 131.031 37.7041C131.956 37.464 132.935 37.5333 133.815 37.901C134.696 38.2688 135.428 38.9144 135.899 39.737L140.033 37.468C139.054 35.7376 137.521 34.3771 135.676 33.5995C133.83 32.8219 131.776 32.6712 129.834 33.171C127.892 33.6709 126.173 34.793 124.947 36.3616C123.72 37.9301 123.054 39.8566 123.054 41.839C123.054 43.8214 123.72 45.7479 124.947 47.3164C126.173 48.885 127.892 50.0072 129.834 50.507C131.776 51.0068 133.83 50.8561 135.676 50.0785C137.521 49.3009 139.054 47.9404 140.033 46.21L135.899 43.941Z" fill="black"/>
<path d="M100.314 25.454H95.1416V50.4621H100.314V25.454Z" fill="black"/>
<path d="M142.063 25.454V50.4612H147.236V42.9619L153.377 50.4621H160L152.192 41.5528L159.42 33.2408H153.087L147.236 40.1438V25.454H142.063Z" fill="black"/>
<path d="M115.689 43.9891C115.25 44.6493 114.651 45.1899 113.945 45.5615C113.24 45.933 112.451 46.1236 111.652 46.1157C110.505 46.1157 109.404 45.6652 108.593 44.8635C107.781 44.0617 107.325 42.9743 107.325 41.8404C107.325 40.7065 107.781 39.6191 108.593 38.8173C109.404 38.0155 110.505 37.5651 111.652 37.5651C112.458 37.5648 113.251 37.7662 113.957 38.1505C114.663 38.5348 115.259 39.0895 115.689 39.7629V43.9891ZM115.689 33.2408V35.2749C114.847 33.8659 112.739 32.8867 110.542 32.8867C105.997 32.8867 102.42 36.8513 102.42 41.8201C102.42 46.7888 105.997 50.8005 110.542 50.8005C112.742 50.8005 114.847 49.8214 115.689 48.4123V50.4464H120.862V33.2492H115.689V33.2408Z" fill="black"/>
<path d="M46.4062 43.9651C46.4062 44.5887 46.219 45.1982 45.8684 45.7167C45.5178 46.2352 45.0194 46.6393 44.4364 46.8779C43.8533 47.1166 43.2117 47.179 42.5927 47.0573C41.9737 46.9357 41.4052 46.6354 40.9589 46.1945C40.5126 45.7536 40.2087 45.1918 40.0856 44.5802C39.9625 43.9686 40.0257 43.3347 40.2672 42.7586C40.5087 42.1825 40.9177 41.69 41.4424 41.3436C41.9672 40.9972 42.5841 40.8123 43.2152 40.8123H46.4062V43.9651Z" fill="#E01E5A"/>
<path d="M48.0016 43.9651C48.0016 43.1289 48.3378 42.327 48.9362 41.7357C49.5346 41.1444 50.3462 40.8123 51.1925 40.8123C52.0388 40.8123 52.8504 41.1444 53.4489 41.7357C54.0473 42.327 54.3835 43.1289 54.3835 43.9651V51.8472C54.3835 52.6834 54.0473 53.4853 53.4489 54.0766C52.8504 54.6678 52.0388 55 51.1925 55C50.3462 55 49.5346 54.6678 48.9362 54.0766C48.3378 53.4853 48.0016 52.6834 48.0016 51.8472V43.9651Z" fill="#E01E5A"/>
<path d="M51.1927 31.3057C50.5615 31.3057 49.9446 31.1208 49.4199 30.7743C48.8951 30.4279 48.4861 29.9355 48.2446 29.3594C48.0031 28.7833 47.9399 28.1493 48.063 27.5377C48.1861 26.9262 48.4901 26.3644 48.9363 25.9234C49.3826 25.4825 49.9512 25.1822 50.5701 25.0606C51.1891 24.9389 51.8307 25.0014 52.4138 25.24C52.9968 25.4786 53.4952 25.8827 53.8458 26.4012C54.1964 26.9197 54.3836 27.5293 54.3836 28.1528V31.3057H51.1927Z" fill="#36C5F0"/>
<path d="M51.1926 32.9061C51.6117 32.9061 52.0266 32.9877 52.4137 33.1461C52.8009 33.3046 53.1527 33.5368 53.449 33.8296C53.7453 34.1223 53.9803 34.4699 54.1407 34.8524C54.301 35.2349 54.3836 35.6449 54.3836 36.059C54.3836 36.473 54.301 36.883 54.1407 37.2655C53.9803 37.648 53.7453 37.9956 53.449 38.2884C53.1527 38.5811 52.8009 38.8134 52.4137 38.9718C52.0266 39.1302 51.6117 39.2118 51.1926 39.2118H43.1881C42.3418 39.2118 41.5302 38.8796 40.9318 38.2884C40.3334 37.6971 39.9972 36.8951 39.9972 36.059C39.9972 35.2228 40.3334 34.4208 40.9318 33.8296C41.5302 33.2383 42.3418 32.9061 43.1881 32.9061H51.1926Z" fill="#36C5F0"/>
<path d="M63.9807 36.0589C63.9798 35.4352 64.1662 34.8252 64.5162 34.3061C64.8663 33.787 65.3643 33.3822 65.9473 33.1428C66.5303 32.9035 67.172 32.8404 67.7913 32.9615C68.4106 33.0826 68.9796 33.3826 69.4263 33.8233C69.8731 34.264 70.1774 34.8258 70.3009 35.4375C70.4244 36.0492 70.3615 36.6834 70.1201 37.2598C69.8788 37.8362 69.4698 38.3288 68.9449 38.6755C68.4201 39.0221 67.803 39.2072 67.1717 39.2072H63.9807V36.0589Z" fill="#2EB67D"/>
<path d="M62.3853 36.059C62.3853 36.8951 62.0491 37.6971 61.4507 38.2884C60.8523 38.8796 60.0406 39.2118 59.1944 39.2118C58.3481 39.2118 57.5364 38.8796 56.938 38.2884C56.3396 37.6971 56.0034 36.8951 56.0034 36.059V28.1528C56.0034 27.3167 56.3396 26.5147 56.938 25.9234C57.5364 25.3322 58.3481 25 59.1944 25C60.0406 25 60.8523 25.3322 61.4507 25.9234C62.0491 26.5147 62.3853 27.3167 62.3853 28.1528V36.059Z" fill="#2EB67D"/>
<path d="M59.1944 48.6943C59.8255 48.6943 60.4424 48.8792 60.9671 49.2257C61.4919 49.5721 61.9009 50.0645 62.1424 50.6406C62.3839 51.2167 62.4471 51.8507 62.324 52.4623C62.2009 53.0738 61.897 53.6356 61.4507 54.0766C61.0044 54.5175 60.4359 54.8178 59.8169 54.9394C59.1979 55.0611 58.5563 54.9986 57.9732 54.76C57.3902 54.5214 56.8918 54.1173 56.5412 53.5988C56.1906 53.0803 56.0034 52.4707 56.0034 51.8472V48.6943H59.1944Z" fill="#ECB22E"/>
<path d="M59.1944 47.1179C58.3481 47.1179 57.5364 46.7858 56.938 46.1945C56.3396 45.6032 56.0034 44.8013 56.0034 43.9651C56.0034 43.1289 56.3396 42.327 56.938 41.7357C57.5364 41.1444 58.3481 40.8123 59.1944 40.8123H67.196C68.0423 40.8123 68.854 41.1444 69.4524 41.7357C70.0508 42.327 70.387 43.1289 70.387 43.9651C70.387 44.8013 70.0508 45.6032 69.4524 46.1945C68.854 46.7858 68.0423 47.1179 67.196 47.1179H59.1944Z" fill="#ECB22E"/>
</g>
<defs>
<clipPath id="clip0">
<rect x="40" y="25" width="120" height="30" fill="white"/>
</clipPath>
</defs>
</svg>
